<?xml version="1.0" encoding="utf-8"?>
<!-- Generator: Adobe Illustrator 17.0.0, SVG Export Plug-In . SVG Version: 6.00 Build 0)  -->
<!DOCTYPE svg PUBLIC "-//W3C//DTD SVG 1.1//EN" "http://www.w3.org/Graphics/SVG/1.1/DTD/svg11.dtd">
<svg version="1.1" id="Слой_1" xmlns="http://www.w3.org/2000/svg" xmlns:xlink="http://www.w3.org/1999/xlink" x="0px" y="0px"
	 width="19.2px" height="13.2px" viewBox="0 0 19.2 13.2" enable-background="new 0 0 19.2 13.2" xml:space="preserve">
<g>
	<path fill="#FFFFFF" d="M18.9,6l-5.7-5.7c-0.3-0.3-0.9-0.3-1.3,0c-0.3,0.3-0.3,0.9,0,1.3l4.2,4.2H0.9C0.4,5.7,0,6.1,0,6.6
		c0,0.5,0.4,0.9,0.9,0.9h15.2L12,11.7c-0.3,0.3-0.3,0.9,0,1.3c0.2,0.2,0.4,0.3,0.6,0.3c0.2,0,0.5-0.1,0.6-0.3l5.7-5.7
		C19.3,6.9,19.3,6.3,18.9,6z"/>
</g>
</svg>
