<?xml version="1.0" encoding="utf-8"?>
<!-- Generator: Adobe Illustrator 17.0.0, SVG Export Plug-In . SVG Version: 6.00 Build 0)  -->
<!DOCTYPE svg PUBLIC "-//W3C//DTD SVG 1.1//EN" "http://www.w3.org/Graphics/SVG/1.1/DTD/svg11.dtd">
<svg version="1.1" id="Слой_1" xmlns="http://www.w3.org/2000/svg" xmlns:xlink="http://www.w3.org/1999/xlink" x="0px" y="0px"
	 width="20.8px" height="20.8px" viewBox="0 0 20.8 20.8" enable-background="new 0 0 20.8 20.8" xml:space="preserve">
<path fill="#FFFFFF" d="M10.4,0C4.7,0,0,4.7,0,10.4c0,5.7,4.7,10.4,10.4,10.4c5.7,0,10.4-4.7,10.4-10.4C20.8,4.7,16.1,0,10.4,0z
	 M13.2,10.4h-1.8c0,2.9,0,6.5,0,6.5H8.7c0,0,0-3.5,0-6.5H7.4V8.1h1.3V6.6c0-1.1,0.5-2.7,2.7-2.7l2,0v2.2c0,0-1.2,0-1.5,0
	s-0.6,0.1-0.6,0.6v1.3h2.1L13.2,10.4z"/>
</svg>
