<?xml version="1.0" encoding="utf-8"?>
<!-- Generator: Adobe Illustrator 17.0.0, SVG Export Plug-In . SVG Version: 6.00 Build 0)  -->
<!DOCTYPE svg PUBLIC "-//W3C//DTD SVG 1.1//EN" "http://www.w3.org/Graphics/SVG/1.1/DTD/svg11.dtd">
<svg version="1.1" id="Capa_1" xmlns="http://www.w3.org/2000/svg" xmlns:xlink="http://www.w3.org/1999/xlink" x="0px" y="0px"
	 width="33.6px" height="26.9px" viewBox="61.1 -7.8 33.6 26.9" enable-background="new 61.1 -7.8 33.6 26.9" xml:space="preserve">
<g>
	<path fill="#B6C04C" d="M93.2-5.7c-0.2-0.2-0.5-0.2-0.6,0c-0.2,0.2-0.2,0.5,0,0.6c1.7,1.7,1.7,4.4,0,6.1c-0.2,0.2-0.2,0.5,0,0.6
		c0.1,0.1,0.2,0.1,0.3,0.1s0.2,0,0.3-0.1C95.2-0.4,95.2-3.7,93.2-5.7z"/>
	<path fill="#B6C04C" d="M90.2-4.7c-0.2-0.2-0.5-0.2-0.6,0c-0.2,0.2-0.2,0.5,0,0.6c0.6,0.6,0.9,1.3,0.9,2.1s-0.3,1.5-0.9,2.1
		c-0.2,0.2-0.2,0.5,0,0.6c0.1,0.1,0.2,0.1,0.3,0.1s0.2,0,0.3-0.1C90.9,0,91.3-1,91.3-2S90.9-4,90.2-4.7z"/>
	<path fill="#B6C04C" d="M63.2-5.1c0.2-0.2,0.2-0.5,0-0.6c-0.2-0.2-0.5-0.2-0.6,0c-2,2-2,5.3,0,7.3c0.1,0.1,0.2,0.1,0.3,0.1
		c0.1,0,0.2,0,0.3-0.1c0.2-0.2,0.2-0.5,0-0.6C61.6-0.7,61.6-3.4,63.2-5.1z"/>
	<path fill="#B6C04C" d="M66.2-4.8c-0.2-0.2-0.5-0.2-0.6,0c-0.7,0.7-1.1,1.7-1.1,2.7s0.4,2,1.1,2.7c0.1,0.1,0.2,0.1,0.3,0.1
		c0.1,0,0.2,0,0.3-0.1c0.2-0.2,0.2-0.5,0-0.6c-0.6-0.6-0.9-1.3-0.9-2.1s0.3-1.5,0.9-2.1C66.4-4.4,66.4-4.7,66.2-4.8z"/>
	<path fill="#FFFFFF" d="M83.6-7.8H72.3c-1.1,0-2,0.9-2,2v23c0,1.1,0.9,2,2,2h11.3c1.1,0,2-0.9,2-2v-23C85.5-6.9,84.6-7.8,83.6-7.8z
		 M79.2-6.4h0.4c0.2,0,0.4,0.2,0.4,0.4s-0.2,0.4-0.4,0.4h-0.4c-0.2,0-0.4-0.2-0.4-0.4S79-6.4,79.2-6.4z M76.1-6.4h1.8
		c0.2,0,0.4,0.2,0.4,0.4s-0.2,0.4-0.4,0.4h-1.8c-0.2,0-0.4-0.2-0.4-0.4S75.9-6.4,76.1-6.4z M77.9,17.8c-1,0-1.8-0.8-1.8-1.8
		c0-1,0.8-1.8,1.8-1.8c1,0,1.8,0.8,1.8,1.8C79.7,17,78.9,17.8,77.9,17.8z M84.6,12.8H71.2v-17h13.5V12.8z"/>
</g>
</svg>
