<?xml version="1.0" encoding="utf-8"?>
<!-- Generator: Adobe Illustrator 17.0.0, SVG Export Plug-In . SVG Version: 6.00 Build 0)  -->
<!DOCTYPE svg PUBLIC "-//W3C//DTD SVG 1.1//EN" "http://www.w3.org/Graphics/SVG/1.1/DTD/svg11.dtd">
<svg version="1.1" id="Слой_1" xmlns="http://www.w3.org/2000/svg" xmlns:xlink="http://www.w3.org/1999/xlink" x="0px" y="0px"
	 width="20.8px" height="20.8px" viewBox="0 0 20.8 20.8" enable-background="new 0 0 20.8 20.8" xml:space="preserve">
<g>
	<path fill="#FFFFFF" d="M8.9,9.4c1.1,0,2.2,0.1,2.2-1.1c0-1.1-1.2-1-2.2-1l0,0.8V9.4z"/>
	<path fill="#FFFFFF" d="M8.9,11v2.4c1.2,0,2.8,0.2,2.8-1.2C11.8,10.8,10.2,11,8.9,11z"/>
	<path fill="#FFFFFF" d="M10.4,0C4.7,0,0,4.7,0,10.4s4.7,10.4,10.4,10.4c5.7,0,10.4-4.7,10.4-10.4S16.1,0,10.4,0z M10.7,15.2H6.5
		l0-9.7h4.4c1.5,0,2.7,0.7,2.7,2.1c0,1.2-0.4,1.7-1.3,2.2c0.1,0.1,0.6,0.2,0.8,0.3c0.3,0.1,0.4,0.3,0.6,0.5c0.5,0.5,0.6,1,0.6,1.8
		C14.3,14.3,12.5,15.2,10.7,15.2z"/>
</g>
</svg>
