{
    "asset": {
        "copyright": "Zyrox",
        "generator": "Maya2glTF V0.9.7-BETA ab18f62",
        "version": "2.0"
    },
    "scenes": [
        {
            "nodes": [
                0
            ]
        }
    ],
    "scene": 0,
    "nodes": [
        {
            "children": [
                1
            ],
            "name": "pSphere66"
        },
        {
            "mesh": 0,
            "translation": [
                7.4636383056640629,
                -7.152018070220947,
                15.376190185546877
            ],
            "name": "pSphere66Shape"
        }
    ],
    "meshes": [
        {
            "primitives": [
                {
                    "attributes": {
                        "NORMAL": 1,
                        "POSITION": 2,
                        "TANGENT": 3,
                        "TEXCOORD_0": 4
                    },
                    "indices": 0,
                    "mode": 4,
                    "material": 0
                },
                {
                    "attributes": {
                        "NORMAL": 6,
                        "POSITION": 7,
                        "TANGENT": 8,
                        "TEXCOORD_0": 9
                    },
                    "indices": 5,
                    "mode": 4,
                    "material": 1
                },
                {
                    "attributes": {
                        "NORMAL": 11,
                        "POSITION": 12,
                        "TANGENT": 13,
                        "TEXCOORD_0": 14
                    },
                    "indices": 10,
                    "mode": 4,
                    "material": 2
                },
                {
                    "attributes": {
                        "NORMAL": 16,
                        "POSITION": 17,
                        "TANGENT": 18,
                        "TEXCOORD_0": 19
                    },
                    "indices": 15,
                    "mode": 4,
                    "material": 3
                },
                {
                    "attributes": {
                        "NORMAL": 21,
                        "POSITION": 22,
                        "TANGENT": 23,
                        "TEXCOORD_0": 24
                    },
                    "indices": 20,
                    "mode": 4,
                    "material": 4
                },
                {
                    "attributes": {
                        "NORMAL": 26,
                        "POSITION": 27,
                        "TANGENT": 28,
                        "TEXCOORD_0": 29
                    },
                    "indices": 25,
                    "mode": 4,
                    "material": 5
                },
                {
                    "attributes": {
                        "NORMAL": 31,
                        "POSITION": 32,
                        "TANGENT": 33,
                        "TEXCOORD_0": 34
                    },
                    "indices": 30,
                    "mode": 4,
                    "material": 6
                },
                {
                    "attributes": {
                        "NORMAL": 36,
                        "POSITION": 37,
                        "TANGENT": 38,
                        "TEXCOORD_0": 39
                    },
                    "indices": 35,
                    "mode": 4,
                    "material": 7
                }
            ],
            "name": "pSphere66Shape"
        }
    ],
    "accessors": [
        {
            "bufferView": 0,
            "byteOffset": 0,
            "componentType": 5123,
            "count": 40230,
            "max": [
                9386
            ],
            "min": [
                0
            ],
            "type": "SCALAR"
        },
        {
            "bufferView": 1,
            "byteOffset": 0,
            "componentType": 5126,
            "count": 9387,
            "max": [
                0.8717964291572571,
                1.0,
                0.8919793963432312
            ],
            "min": [
                -0.8778337240219116,
                0.3628793060779572,
                -0.931598663330078
            ],
            "type": "VEC3"
        },
        {
            "bufferView": 1,
            "byteOffset": 112644,
            "componentType": 5126,
            "count": 9387,
            "max": [
                113.5455322265625,
                19.25501823425293,
                74.87338256835938
            ],
            "min": [
                -8.061948776245118,
                -19.86321258544922,
                -130.17446899414066
            ],
            "type": "VEC3"
        },
        {
            "bufferView": 2,
            "byteOffset": 0,
            "componentType": 5126,
            "count": 9387,
            "max": [
                1.0,
                0.9205914735794069,
                0.9924241304397584,
                1.0
            ],
            "min": [
                -0.9944640398025512,
                -0.9202085733413696,
                -0.992422342300415,
                1.0
            ],
            "type": "VEC4"
        },
        {
            "bufferView": 3,
            "byteOffset": 0,
            "componentType": 5126,
            "count": 9387,
            "max": [
                0.9510565996170044,
                1.0
            ],
            "min": [
                5.960464477539064e-8,
                0.0954914093017578
            ],
            "type": "VEC2"
        },
        {
            "bufferView": 0,
            "byteOffset": 80460,
            "componentType": 5123,
            "count": 192780,
            "max": [
                36854
            ],
            "min": [
                0
            ],
            "type": "SCALAR"
        },
        {
            "bufferView": 1,
            "byteOffset": 225288,
            "componentType": 5126,
            "count": 36855,
            "max": [
                0.999797224998474,
                0.999660074710846,
                0.9995071887969972
            ],
            "min": [
                -0.9998815655708312,
                -0.9999300241470336,
                -0.9998787641525269
            ],
            "type": "VEC3"
        },
        {
            "bufferView": 1,
            "byteOffset": 667548,
            "componentType": 5126,
            "count": 36855,
            "max": [
                107.4283218383789,
                21.141572952270509,
                124.64535522460938
            ],
            "min": [
                -91.44595336914064,
                8.98051929473877,
                -122.00984954833985
            ],
            "type": "VEC3"
        },
        {
            "bufferView": 2,
            "byteOffset": 150192,
            "componentType": 5126,
            "count": 36855,
            "max": [
                0.9999444484710692,
                0.9475309252738952,
                0.9999907612800598,
                1.0
            ],
            "min": [
                -0.999987244606018,
                -0.9232799410820008,
                -0.9999909996986388,
                1.0
            ],
            "type": "VEC4"
        },
        {
            "bufferView": 3,
            "byteOffset": 75096,
            "componentType": 5126,
            "count": 36855,
            "max": [
                1.0,
                1.0
            ],
            "min": [
                0.0,
                0.0
            ],
            "type": "VEC2"
        },
        {
            "bufferView": 0,
            "byteOffset": 466020,
            "componentType": 5123,
            "count": 17010,
            "max": [
                9575
            ],
            "min": [
                0
            ],
            "type": "SCALAR"
        },
        {
            "bufferView": 1,
            "byteOffset": 1109808,
            "componentType": 5126,
            "count": 9576,
            "max": [
                0.9998109936714172,
                1.0,
                0.9968106746673584
            ],
            "min": [
                -0.9986987709999085,
                -1.0,
                -0.9991549849510192
            ],
            "type": "VEC3"
        },
        {
            "bufferView": 1,
            "byteOffset": 1224720,
            "componentType": 5126,
            "count": 9576,
            "max": [
                106.45526123046877,
                14.442334175109864,
                122.78067016601564
            ],
            "min": [
                -89.3081283569336,
                6.318594932556152,
                -120.04377746582033
            ],
            "type": "VEC3"
        },
        {
            "bufferView": 2,
            "byteOffset": 739872,
            "componentType": 5126,
            "count": 9576,
            "max": [
                1.0,
                0.9999204874038696,
                1.0,
                1.0
            ],
            "min": [
                -0.999855637550354,
                -0.9999749064445496,
                -0.999998927116394,
                1.0
            ],
            "type": "VEC4"
        },
        {
            "bufferView": 3,
            "byteOffset": 369936,
            "componentType": 5126,
            "count": 9576,
            "max": [
                0.65625,
                0.9923526048660278
            ],
            "min": [
                0.3735910654067993,
                0.007647395133972168
            ],
            "type": "VEC2"
        },
        {
            "bufferView": 0,
            "byteOffset": 500040,
            "componentType": 5123,
            "count": 16206,
            "max": [
                5809
            ],
            "min": [
                0
            ],
            "type": "SCALAR"
        },
        {
            "bufferView": 1,
            "byteOffset": 1339632,
            "componentType": 5126,
            "count": 5810,
            "max": [
                1.0,
                1.0,
                1.0
            ],
            "min": [
                -1.0,
                -1.0,
                -1.0
            ],
            "type": "VEC3"
        },
        {
            "bufferView": 1,
            "byteOffset": 1409352,
            "componentType": 5126,
            "count": 5810,
            "max": [
                187.45799255371098,
                8.7387056350708,
                207.18008422851566
            ],
            "min": [
                -187.45799255371098,
                4.737290859222412,
                -207.18008422851566
            ],
            "type": "VEC3"
        },
        {
            "bufferView": 2,
            "byteOffset": 893088,
            "componentType": 5126,
            "count": 5810,
            "max": [
                1.0,
                1.0,
                1.0,
                1.0
            ],
            "min": [
                -1.0,
                -1.0,
                -1.0,
                -1.0
            ],
            "type": "VEC4"
        },
        {
            "bufferView": 3,
            "byteOffset": 446544,
            "componentType": 5126,
            "count": 5810,
            "max": [
                55.07548141479492,
                61.37337112426758
            ],
            "min": [
                -54.07548141479492,
                -60.37337112426758
            ],
            "type": "VEC2"
        },
        {
            "bufferView": 0,
            "byteOffset": 532452,
            "componentType": 5123,
            "count": 5940,
            "max": [
                2545
            ],
            "min": [
                0
            ],
            "type": "SCALAR"
        },
        {
            "bufferView": 1,
            "byteOffset": 1479072,
            "componentType": 5126,
            "count": 2546,
            "max": [
                1.0,
                1.0,
                0.9934170842170716
            ],
            "min": [
                -1.0,
                -1.0,
                -0.6679069399833679
            ],
            "type": "VEC3"
        },
        {
            "bufferView": 1,
            "byteOffset": 1509624,
            "componentType": 5126,
            "count": 2546,
            "max": [
                110.27365112304688,
                8.269803047180176,
                67.26480102539063
            ],
            "min": [
                40.50846862792969,
                2.1972551345825197,
                -102.52552795410156
            ],
            "type": "VEC3"
        },
        {
            "bufferView": 2,
            "byteOffset": 986048,
            "componentType": 5126,
            "count": 2546,
            "max": [
                1.0,
                1.0,
                0.97613525390625,
                1.0
            ],
            "min": [
                -0.9934170842170716,
                -1.0,
                -0.97613525390625,
                -1.0
            ],
            "type": "VEC4"
        },
        {
            "bufferView": 3,
            "byteOffset": 493024,
            "componentType": 5126,
            "count": 2546,
            "max": [
                0.7054451704025269,
                0.9999998807907105
            ],
            "min": [
                0.2945549488067627,
                -2.384185791015625e-7
            ],
            "type": "VEC2"
        },
        {
            "bufferView": 0,
            "byteOffset": 544332,
            "componentType": 5123,
            "count": 8280,
            "max": [
                3481
            ],
            "min": [
                0
            ],
            "type": "SCALAR"
        },
        {
            "bufferView": 1,
            "byteOffset": 1540176,
            "componentType": 5126,
            "count": 3482,
            "max": [
                1.0,
                1.0,
                1.0
            ],
            "min": [
                -1.0,
                -1.0,
                -1.0
            ],
            "type": "VEC3"
        },
        {
            "bufferView": 1,
            "byteOffset": 1581960,
            "componentType": 5126,
            "count": 3482,
            "max": [
                110.27365112304688,
                9.281539916992188,
                119.21951293945313
            ],
            "min": [
                -98.11766052246094,
                4.522541522979736,
                -102.88053894042968
            ],
            "type": "VEC3"
        },
        {
            "bufferView": 2,
            "byteOffset": 1026784,
            "componentType": 5126,
            "count": 3482,
            "max": [
                1.0,
                1.0,
                0.991738498210907,
                1.0
            ],
            "min": [
                -0.999550759792328,
                -1.0,
                -0.999983549118042,
                -1.0
            ],
            "type": "VEC4"
        },
        {
            "bufferView": 3,
            "byteOffset": 513392,
            "componentType": 5126,
            "count": 3482,
            "max": [
                42.10564804077149,
                58.88957214355469
            ],
            "min": [
                -30.121257781982427,
                -30.585269927978517
            ],
            "type": "VEC2"
        },
        {
            "bufferView": 0,
            "byteOffset": 560892,
            "componentType": 5123,
            "count": 31032,
            "max": [
                6404
            ],
            "min": [
                0
            ],
            "type": "SCALAR"
        },
        {
            "bufferView": 1,
            "byteOffset": 1623744,
            "componentType": 5126,
            "count": 6405,
            "max": [
                0.9997034072875976,
                0.9996236562728882,
                0.9983524084091188
            ],
            "min": [
                -0.9987137317657472,
                -0.9997549057006836,
                -0.9990529417991638
            ],
            "type": "VEC3"
        },
        {
            "bufferView": 1,
            "byteOffset": 1700604,
            "componentType": 5126,
            "count": 6405,
            "max": [
                142.4413604736328,
                10.993805885314942,
                112.52774810791016
            ],
            "min": [
                -84.6302261352539,
                4.594868183135986,
                -127.02130126953124
            ],
            "type": "VEC3"
        },
        {
            "bufferView": 2,
            "byteOffset": 1082496,
            "componentType": 5126,
            "count": 6405,
            "max": [
                0.9913985133171082,
                0.9995846152305604,
                0.9997981190681458,
                1.0
            ],
            "min": [
                -0.9999166131019592,
                -0.999646782875061,
                -0.9990217685699464,
                -1.0
            ],
            "type": "VEC4"
        },
        {
            "bufferView": 3,
            "byteOffset": 541248,
            "componentType": 5126,
            "count": 6405,
            "max": [
                1.0,
                1.0
            ],
            "min": [
                0.0,
                0.0
            ],
            "type": "VEC2"
        },
        {
            "bufferView": 0,
            "byteOffset": 622956,
            "componentType": 5123,
            "count": 8910,
            "max": [
                5015
            ],
            "min": [
                0
            ],
            "type": "SCALAR"
        },
        {
            "bufferView": 1,
            "byteOffset": 1777464,
            "componentType": 5126,
            "count": 5016,
            "max": [
                0.9997811317443848,
                1.0,
                0.9886533617973328
            ],
            "min": [
                -0.9995734691619872,
                -1.0,
                -0.9762997031211852
            ],
            "type": "VEC3"
        },
        {
            "bufferView": 1,
            "byteOffset": 1837656,
            "componentType": 5126,
            "count": 5016,
            "max": [
                112.2378387451172,
                15.998870849609377,
                73.8279800415039
            ],
            "min": [
                -5.958731174468994,
                -21.08960342407227,
                -128.3621826171875
            ],
            "type": "VEC3"
        },
        {
            "bufferView": 2,
            "byteOffset": 1184976,
            "componentType": 5126,
            "count": 5016,
            "max": [
                1.0,
                0.9998652338981628,
                1.0,
                1.0
            ],
            "min": [
                -0.9890927672386168,
                -0.9998736381530762,
                -0.9997482895851136,
                1.0
            ],
            "type": "VEC4"
        },
        {
            "bufferView": 3,
            "byteOffset": 592488,
            "componentType": 5126,
            "count": 5016,
            "max": [
                0.65625,
                0.9923526048660278
            ],
            "min": [
                0.3735910654067993,
                0.007647395133972168
            ],
            "type": "VEC2"
        }
    ],
    "materials": [
        {
            "pbrMetallicRoughness": {}
        },
        {
            "pbrMetallicRoughness": {}
        },
        {
            "pbrMetallicRoughness": {
                "baseColorFactor": [
                    0.22346368432044984,
                    0.12179547548294068,
                    0.06554242223501206,
                    1.0
                ],
                "metallicFactor": 0.0,
                "roughnessFactor": 1.0
            }
        },
        {
            "pbrMetallicRoughness": {
                "baseColorFactor": [
                    1.0,
                    1.0,
                    1.0,
                    1.0
                ],
                "baseColorTexture": {
                    "index": 0
                },
                "metallicFactor": 0.0,
                "roughnessFactor": 1.0
            },
            "normalTexture": {
                "scale": 1.5921788215637208,
                "index": 1
            }
        },
        {
            "pbrMetallicRoughness": {
                "baseColorFactor": [
                    0.02982400357723236,
                    0.07799981534481049,
                    0.18639999628067017,
                    0.5064935088157654
                ],
                "metallicFactor": 0.0,
                "roughnessFactor": 1.0
            },
            "alphaMode": "BLEND"
        },
        {
            "pbrMetallicRoughness": {}
        },
        {
            "pbrMetallicRoughness": {
                "baseColorFactor": [
                    0.4000000059604645,
                    0.4000000059604645,
                    0.4000000059604645,
                    1.0
                ],
                "metallicFactor": 0.0,
                "roughnessFactor": 1.0
            }
        },
        {
            "pbrMetallicRoughness": {
                "baseColorFactor": [
                    0.022346368059515954,
                    0.01217955071479082,
                    0.006554249208420515,
                    1.0
                ],
                "metallicFactor": 0.0,
                "roughnessFactor": 1.0
            }
        }
    ],
    "textures": [
        {
            "sampler": 0,
            "source": 0
        },
        {
            "sampler": 0,
            "source": 1
        }
    ],
    "images": [
        {
            "uri": "Grass0160_1_seamless_L.jpg"
        },
        {
            "uri": "Grass0160_1_seamless_L_normal.jpg"
        }
    ],
    "samplers": [
        {
            "magFilter": 9729,
            "minFilter": 9987,
            "wrapS": 10497,
            "wrapT": 10497
        }
    ],
    "bufferViews": [
        {
            "buffer": 0,
            "byteOffset": 3795696,
            "byteLength": 640776,
            "target": 34963
        },
        {
            "buffer": 0,
            "byteOffset": 1265232,
            "byteLength": 1897848,
            "byteStride": 12,
            "target": 34962
        },
        {
            "buffer": 0,
            "byteOffset": 0,
            "byteLength": 1265232,
            "byteStride": 16,
            "target": 34962
        },
        {
            "buffer": 0,
            "byteOffset": 3163080,
            "byteLength": 632616,
            "byteStride": 8,
            "target": 34962
        }
    ],
    "buffers": [
        {
            "byteLength": 4436472,
            "uri": "CSL-Lengnau_Ground_0810.bin"
        }
    ]
}
