<svg data-name="svg_tree" xmlns="http://www.w3.org/2000/svg" viewBox="0 0 960 1500">
					<!-- Heading -->
					<text class="wrap_heading" transform="translate(367.52 83.54)">
						<tspan class="text_heading">How we do it</tspan>
						<tspan x="65.53" y="31" class="text_subheading">Our process.</tspan>
					</text>
				
					<!-- Labels -->
					<g id="label_inspiration">
						<text class="text_label" transform="translate(258.73 281.15)">Inspiration</text>
						<g class="wrap_bullet">
							<circle class="cls-2" cx="320.5" cy="297.5" r="5.5"/>
							<circle class="circle_innerDot" cx="320.5" cy="297.5" r="2.75"/>
						</g>
					</g>
					
					<g id="label_script">
						<text class="text_label" transform="translate(553.11 302.99)">Script</text>
						<g class="wrap_bullet">
							<circle class="cls-2" cx="538.5" cy="298.5" r="5.5"/>
							<circle class="circle_innerDot" cx="538.5" cy="298.5" r="2.75"/>
						</g>
					</g>
					
					<g id="label_animation">
						<text class="text_label" transform="translate(260.36 628.86)">Animation</text>
						<g class="wrap_bullet">
							<circle class="cls-2" cx="383.5" cy="624.5" r="5.5"/>
							<circle class="circle_innerDot" cx="383.5" cy="624.5" r="2.75"/>
						</g>
					</g>
					
					<g id="label_storyboard">
						<text class="text_label" transform="translate(543.78 379.85)">Storyboard</text>
						<g class="wrap_bullet">
							<circle class="cls-2" cx="609.5" cy="396.5" r="5.5"/>
							<circle class="circle_innerDot" cx="609.5" cy="396.5" r="2.75"/>
						</g>
					</g>

					<g id="label_music">
						<text class="text_label" transform="translate(322.1 1106.07) rotate(0.1)">Music</text>
						<g class="wrap_bullet">
							<circle class="cls-2" cx="353.5" cy="1122.5" r="5.5"/>
							<circle class="circle_innerDot" cx="353.5" cy="1122.5" r="2.75"/>
						</g>
					</g>
					
					<g id="label_voiceover">
						<text class="text_label" transform="translate(621.08 1245.04) rotate(0.1)">Voiceover</text>
						<g class="wrap_bullet">
							<circle class="cls-2" cx="606.5" cy="1240.5" r="5.5"/>
							<circle class="circle_innerDot" cx="606.5" cy="1240.5" r="2.75"/>
						</g>
					</g>
					
					<g id="label_sfx">
						<text class="text_label" transform="translate(356.41 1313.96)">SFX</text>
						<g class="wrap_bullet">
							<circle class="cls-2" cx="403.5" cy="1309.5" r="5.5"/>
							<circle class="circle_innerDot" cx="403.5" cy="1309.5" r="2.75"/>
						</g>
					</g>
					
					<g id="label_compositiong">
						<text class="text_label" transform="translate(622 941.43)">Compositing</text>
						<g class="wrap_bullet">
							<circle class="cls-2" cx="606.5" cy="936.5" r="5.5"/>
							<circle class="circle_innerDot" cx="606.5" cy="936.5" r="2.75"/>
						</g>
					</g>
					
					<g id="label_vfx">
						<text class="text_label" transform="translate(234.22 870.49)">VFX</text>
						<g class="wrap_bullet">
							<circle class="cls-2" cx="282.5" cy="865.5" r="5.5"/>
							<circle class="circle_innerDot" cx="282.5" cy="865.5" r="2.75"/>
						</g>
					</g>
					
					<g id="label_3dgraphics">
						<text class="text_label" transform="translate(302.01 775)">3D graphics</text>
						<g class="wrap_bullet">
							<circle class="cls-2" cx="368.5" cy="790.5" r="5.5"/>
							<circle class="circle_innerDot" cx="368.5" cy="790.5" r="2.75"/>
						</g>
					</g>
					
					<g id="label_drawing">
						<text class="text_label" transform="translate(546.15 664.23)">Drawing</text>
						<g class="wrap_bullet">
							<circle class="cls-2" cx="593.5" cy="680.5" r="5.5"/>
							<circle class="circle_innerDot" cx="593.5" cy="680.5" r="2.75"/>
						</g>
					</g>

				  <line class="cls-2" x1="480.5" y1="1083" x2="480.5" y2="1406"/>
				  <line class="cls-2" x1="480.5" y1="590" x2="480.5" y2="1011"/>
				  <line class="cls-2" x1="480.5" y1="244" x2="480.5" y2="518"/>
				  <line class="cls-2" x1="480.5" y1="139" x2="480.5" y2="172"/>
				  <line class="cls-2" x1="480.5" x2="480.5" y2="47"/>
				  <path class="cls-2" d="M480.5,433V405c0-22.66-13-37.49-35.5-37.49H357.67c-21.33,0-37.17-15.17-37.17-41.83V305"/>
				  <path class="cls-2" d="M480.44,1275.49c0-21.66,14.62-35,35.62-35H599"/>
				  <path class="cls-2" d="M480.5,660.5c0-20.88-13-36-36.5-36H391"/>
				  <path class="cls-2" d="M480.5,1344.66c0-20.35-15.83-35.16-36.5-35.16H411"/>
				  <path class="cls-2" d="M480.5,769.32c0-21,14.5-33.82,35.5-33.82h41c19.67,0,36.5-13.9,36.5-35.57V688"/>
				  <path class="cls-2" d="M480.5,485c0-20.67,14.5-34.5,35.5-34.5h57c21.67,0,36.5-15.8,36.5-37.14V404"/>

				  <path class="cls-2" d="M480.5,1214.45c0-21.66-14.56-35.14-35.56-35.1l-55.46,0c-20.33,0-35.86-14.77-35.9-35.77l0-13.67"/>
				  <circle class="cls-2" cx="481" cy="208.25" r="26"/>
				  <circle class="cls-2" cx="481" cy="1047.4" r="26"/>
				  
				  <path class="cls-2" d="M480.5,334.5c0-20.88,13-36,36.5-36h14"/>
				  
				  <path class="cls-2" d="M480.5,971.66c0-20.35,15.83-35.16,36.5-35.16h82"/>
				  
				  <path class="cls-2" d="M480.5,900.5c0-21.66-14.5-35-35.5-35H404.33c-20.33,0-35.83-14.83-35.83-35.83V798"/>
				  <line class="cls-2" x1="404" y1="865.5" x2="290" y2="865.5"/>
				  
				  <g>
				    <circle class="cls-2" cx="470.66" cy="1056.92" r="5.21"/>
				    <path class="cls-2" d="M468.05,1056.92a2.61,2.61,0,0,1,2.61-2.61"/>
				    <circle class="cls-2" cx="487.6" cy="1055.61" r="5.21"/>
				    <path class="cls-2" d="M485,1055.61a2.61,2.61,0,0,1,2.61-2.61"/>
				    <polyline class="cls-2" points="475.5 1057 475.5 1036.06 492.5 1032.15 492.5 1056"/>
				    <line class="cls-2" x1="475.87" y1="1043.88" x2="492.82" y2="1039.97"/>
				  </g>
				  <circle class="cls-2" cx="481" cy="554.39" r="26"/>
				  <g>

				    <line class="cls-2" x1="466.19" y1="565.98" x2="468.78" y2="568.56"/>
				    <line class="cls-2" x1="468.78" y1="568.56" x2="494.6" y2="542.74"/>
				    <line class="cls-2" x1="494.6" y1="542.74" x2="492.02" y2="540.16"/>
				    <line class="cls-2" x1="492.02" y1="540.16" x2="466.19" y2="565.98"/>
				    <line class="cls-2" x1="486.85" y1="545.32" x2="489.43" y2="547.9"/>
				    <line class="cls-2" x1="483.5" y1="558" x2="483.5" y2="561"/>
				    <line class="cls-2" x1="483.5" y1="540" x2="483.5" y2="543"/>
				    <line class="cls-2" x1="477" y1="551.5" x2="474" y2="551.5"/>
				    <line class="cls-2" x1="495" y1="551.5" x2="492" y2="551.5"/>
				    <line class="cls-2" x1="478.79" y1="545.01" x2="476.05" y2="542.27"/>
				    <line class="cls-2" x1="492.49" y1="558.7" x2="489.75" y2="555.96"/>
				  </g>
				  <g id="tree_play">
				    <path class="cls-10" d="M480.5,1405.49a33.25,33.25,0,1,0,33.25,33.25A33.25,33.25,0,0,0,480.5,1405.49Z"/>
				    <circle class="cls-11" cx="480.5" cy="1438.74" r="39.78"/>
				  </g>
				  <polygon class="cls-12" points="478.13 1449.59 500 1420.59 501.21 1421.29 478.48 1457.58 462.51 1440.42 466.94 1436.03 478.13 1449.59"/>
				  <g>
				    <path class="cls-2" d="M488.55,210.25c1.3-2.41,2.7-5.16,2.7-8.37a10.6,10.6,0,0,0-10.6-10.6,10.75,10.75,0,0,0-10.77,10.6c0,6,4.62,10.4,4.62,14v1.7l11.66-1.64c0-1.67,1.25-3.53,2.39-5.65"/>
				    <line class="cls-2" x1="475.61" y1="219.91" x2="486.11" y2="218.32"/>
				    <line class="cls-2" x1="475.61" y1="222.03" x2="486.11" y2="220.44"/>
				    <path class="cls-2" d="M484.73,223.62c0,0.88-1.76,1.59-3.92,1.59s-3.92-.71-3.92-1.59"/>
				    <path class="cls-2" d="M479.21,213.61c0-6.79-2-9.19-2-9.19a3.8,3.8,0,0,1,5.09,1.7,1.7,1.7,0,0,0,1.7-1.7,25.81,25.81,0,0,0-1.55,9.19"/>
				    <path class="cls-2" d="M488.8,205.1c-0.82,1.71-2,2.3-2.74,3.36"/>
				    <path class="cls-2" d="M474.94,197a7.7,7.7,0,0,1,6.11-3"/>
				    <path class="cls-2" d="M473.41,200.67a7.66,7.66,0,0,1,.49-1.87"/>
				  </g>

				  	<!-- Tooltips -->
					<g class="wrap_tooltip" id="tooltip_inspiration">
						<text transform="translate(220 263.4)">
							<tspan class="text_tooltip" x="0" text-anchor="end">Engaging script – it’s half the</tspan>
							<tspan class="text_tooltip" x="0" dy="19" text-anchor="end">battle. Describe your ideas</tspan>
							<tspan class="text_tooltip" x="0" dy="19" text-anchor="end">interesting.</tspan>
						</text>
						<line class="cls-15" x1="239.5" y1="255" x2="239.5" y2="299"/>					  
					</g>
					
					<g class="wrap_tooltip" id="tooltip_script">
						<text transform="translate(659.67 284.4)">
							<tspan class="text_tooltip" x="0">Engaging script – it’s half the</tspan>
							<tspan class="text_tooltip" x="0" dy="19" >battle. Describe your ideas</tspan>
							<tspan class="text_tooltip" x="0" dy="19">interesting.</tspan>
						</text>
						<line class="cls-15" x1="639.5" y1="276" x2="639.5" y2="320"/>
					</g>
					
					<g class="wrap_tooltip" id="tooltip_storyboard">
						<text transform="translate(712.67 362.4)">
							<tspan class="text_tooltip" x="0">Engaging script – it’s half the</tspan>
							<tspan class="text_tooltip" x="0" dy="19" >battle. Describe your ideas</tspan>
							<tspan class="text_tooltip" x="0" dy="19">interesting.</tspan>
						</text>
						<line class="cls-15" x1="692.5" y1="354" x2="692.5" y2="398"/>
					</g>
					
					<g class="wrap_tooltip" id="tooltip_drawing">
						<text transform="translate(677.67 645.4)">
							<tspan class="text_tooltip" x="0">Engaging script – it’s half the</tspan>
							<tspan class="text_tooltip" x="0" dy="19" >battle. Describe your ideas</tspan>
							<tspan class="text_tooltip" x="0" dy="19">interesting.</tspan>
						</text>
						<line class="cls-15" x1="657.5" y1="637" x2="657.5" y2="681"/>
					</g>
					
					<g class="wrap_tooltip" id="tooltip_animation">
						<text transform="translate(220 611.4)">
							<tspan class="text_tooltip" x="0" text-anchor="end">Engaging script – it’s half the</tspan>
							<tspan class="text_tooltip" x="0" dy="19" text-anchor="end">battle. Describe your ideas</tspan>
							<tspan class="text_tooltip" x="0" dy="19" text-anchor="end">interesting.</tspan>
						</text>
						<line class="cls-15" x1="240.5" y1="603" x2="240.5" y2="647"/>
					</g>
					
					<g class="wrap_tooltip" id="tootlip_3dgraphics">
						<text transform="translate(264 757.4)">
							<tspan class="text_tooltip" x="0" text-anchor="end">Engaging script – it’s half the</tspan>
							<tspan class="text_tooltip" x="0" dy="19" text-anchor="end">battle. Describe your ideas</tspan>
							<tspan class="text_tooltip" x="0" dy="19" text-anchor="end">interesting.</tspan>
						</text>
						<line class="cls-15" x1="282.5" y1="749" x2="282.5" y2="793"/>
					</g>
					
					<g class="wrap_tooltip" id="tooltip_vfx">
						<text transform="translate(275 924.25)">
							<tspan class="text_tooltip" x="0" text-anchor="end">Engaging script – it’s half the</tspan>
							<tspan class="text_tooltip" x="0" dy="19" text-anchor="end">battle. Describe your ideas</tspan>
							<tspan class="text_tooltip" x="0" dy="19" text-anchor="end">interesting.</tspan>
						</text>
						<line class="cls-15" x1="234" y1="891.5" x2="271" y2="891.5"/>
					</g>
					
					<g class="wrap_tooltip" id="tooltip_compositiong">
						<text transform="translate(622.17 994.25)">
							<tspan class="text_tooltip" x="0">Engaging script – it’s half the</tspan>
							<tspan class="text_tooltip" x="0" dy="19" >battle. Describe your ideas</tspan>
							<tspan class="text_tooltip" x="0" dy="19">interesting.</tspan>
						</text>
						<line class="cls-15" x1="624" y1="961.5" x2="753" y2="961.5"/>					  
					</g>
					
					<g class="wrap_tooltip" id="tootlip_voiceover">
						<text transform="translate(622.17 1295.25)">
							<tspan class="text_tooltip" x="0">Engaging script – it’s half the</tspan>
							<tspan class="text_tooltip" x="0" dy="19" >battle. Describe your ideas</tspan>
							<tspan class="text_tooltip" x="0" dy="19">interesting.</tspan>
						</text>
						<line class="cls-15" x1="624" y1="1262.5" x2="732" y2="1262.5"/>
					</g>
					
					<g class="wrap_tooltip" id="tooltip_music">
						<text transform="translate(283 1088.4)">
							<tspan class="text_tooltip" x="0" text-anchor="end">Engaging script – it’s half the</tspan>
							<tspan class="text_tooltip" x="0" dy="19" text-anchor="end">battle. Describe your ideas</tspan>
							<tspan class="text_tooltip" x="0" dy="19" text-anchor="end">interesting.</tspan>
						</text>
						<line class="cls-15" x1="302.5" y1="1080" x2="302.5" y2="1124"/>
					</g>
					
					<g class="wrap_tooltip" id="tooltip_sfx">
						<text transform="translate(322 1296.4)">
							<tspan class="text_tooltip" x="0" text-anchor="end">Engaging script – it’s half the</tspan>
							<tspan class="text_tooltip" x="0" dy="19" text-anchor="end">battle. Describe your ideas</tspan>
							<tspan class="text_tooltip" x="0" dy="19" text-anchor="end">interesting.</tspan>
						</text>
						<line class="cls-15" x1="336.5" y1="1288" x2="336.5" y2="1332"/>
					</g>
				</svg>