<?xml version="1.0" encoding="UTF-8" standalone="no"?>
<svg
   xmlns:dc="http://purl.org/dc/elements/1.1/"
   xmlns:cc="http://creativecommons.org/ns#"
   xmlns:rdf="http://www.w3.org/1999/02/22-rdf-syntax-ns#"
   xmlns:svg="http://www.w3.org/2000/svg"
   xmlns="http://www.w3.org/2000/svg"
   xmlns:sodipodi="http://sodipodi.sourceforge.net/DTD/sodipodi-0.dtd"
   xmlns:inkscape="http://www.inkscape.org/namespaces/inkscape"
   version="1.1"
   id="svg4145"
   viewBox="-1 -1 101 101"
   height="103"
   width="103"
   inkscape:version="0.91 r13725"
   sodipodi:docname="circle_lamp.svg">
  <sodipodi:namedview
     pagecolor="#ffffff"
     bordercolor="#666666"
     borderopacity="1"
     objecttolerance="10"
     gridtolerance="10"
     guidetolerance="10"
     inkscape:pageopacity="1"
     inkscape:pageshadow="2"
     inkscape:window-width="1366"
     inkscape:window-height="708"
     id="namedview8"
     showgrid="false"
     inkscape:zoom="2.36"
     inkscape:cx="10.5426"
     inkscape:cy="8.7591868"
     inkscape:window-x="0"
     inkscape:window-y="31"
     inkscape:window-maximized="1"
     inkscape:current-layer="svg4145" />
  <defs
     id="defs4147" />
  <metadata
     id="metadata4150">
    <rdf:RDF>
      <cc:Work
         rdf:about="">
        <dc:format>image/svg+xml</dc:format>
        <dc:type
           rdf:resource="http://purl.org/dc/dcmitype/StillImage" />
        <dc:title></dc:title>
      </cc:Work>
    </rdf:RDF>
  </metadata>
  <g
     transform="matrix(1.8954265,0,0,1.8954265,-861.79632,-344.6264)"
     id="layer1"
     style="fill:none;fill-opacity:1;fill-rule:evenodd;stroke:white;stroke-width:0.8;stroke-miterlimit:4;stroke-dasharray:none;stroke-opacity:1">
    <g
       id="g7">
      <circle
         class="cls-2"
         cx="481"
         cy="208.25"
         r="26"
         id="circle9" 
		 style="fill:none;fill-opacity:1;fill-rule:evenodd;stroke:white;stroke-width:0.8;stroke-miterlimit:4;stroke-dasharray:none;stroke-opacity:1"
		/>
      <path class="cls-2" d="M488.55,210.25c1.3-2.41,2.7-5.16,2.7-8.37a10.6,10.6,0,0,0-10.6-10.6,10.75,10.75,0,0,0-10.77,10.6c0,6,4.62,10.4,4.62,14v1.7l11.66-1.64c0-1.67,1.25-3.53,2.39-5.65"></path>
				    <line class="cls-2" x1="475.61" y1="219.91" x2="486.11" y2="218.32"></line>
				    <line class="cls-2" x1="475.61" y1="222.03" x2="486.11" y2="220.44"></line>
				    <path class="cls-2" d="M484.73,223.62c0,0.88-1.76,1.59-3.92,1.59s-3.92-.71-3.92-1.59"></path>
				    <path class="cls-2" d="M479.21,213.61c0-6.79-2-9.19-2-9.19a3.8,3.8,0,0,1,5.09,1.7,1.7,1.7,0,0,0,1.7-1.7,25.81,25.81,0,0,0-1.55,9.19"></path>
				    <path class="cls-2" d="M488.8,205.1c-0.82,1.71-2,2.3-2.74,3.36"></path>
				    <path class="cls-2" d="M474.94,197a7.7,7.7,0,0,1,6.11-3"></path>
				    <path class="cls-2" d="M473.41,200.67a7.66,7.66,0,0,1,.49-1.87"></path>
    </g>
  </g>
</svg>
