<?xml version="1.0" encoding="UTF-8" standalone="no"?>
<!-- Created with Inkscape (http://www.inkscape.org/) -->

<svg
   xmlns:dc="http://purl.org/dc/elements/1.1/"
   xmlns:cc="http://creativecommons.org/ns#"
   xmlns:rdf="http://www.w3.org/1999/02/22-rdf-syntax-ns#"
   xmlns:svg="http://www.w3.org/2000/svg"
   xmlns="http://www.w3.org/2000/svg"
   xmlns:sodipodi="http://sodipodi.sourceforge.net/DTD/sodipodi-0.dtd"
   xmlns:inkscape="http://www.inkscape.org/namespaces/inkscape"
   width="357"
   height="30"
   viewBox="0 0 357 30"
   id="svg2"
   version="1.1"
   inkscape:version="0.91 r13725"
   sodipodi:docname="drawing-3.svg">
  <defs
     id="defs4" />
  <sodipodi:namedview
     id="base"
     pagecolor="#ffffff"
     bordercolor="#666666"
     borderopacity="1.0"
     inkscape:pageopacity="0.0"
     inkscape:pageshadow="2"
     inkscape:zoom="0.77246094"
     inkscape:cx="93.842947"
     inkscape:cy="285.55095"
     inkscape:document-units="px"
     inkscape:current-layer="layer1"
     showgrid="false"
     inkscape:window-width="1366"
     inkscape:window-height="711"
     inkscape:window-x="0"
     inkscape:window-y="28"
     inkscape:window-maximized="1"
     units="px" />
  <metadata
     id="metadata7">
    <rdf:RDF>
      <cc:Work
         rdf:about="">
        <dc:format>image/svg+xml</dc:format>
        <dc:type
           rdf:resource="http://purl.org/dc/dcmitype/StillImage" />
        <dc:title></dc:title>
      </cc:Work>
    </rdf:RDF>
  </metadata>
  <g
     inkscape:label="Layer 1"
     inkscape:groupmode="layer"
     id="layer1"
     transform="translate(0,-1022.3621)">
    <flowRoot
       xml:space="preserve"
       id="flowRoot4144"
       style="font-style:normal;font-weight:normal;font-size:40px;line-height:125%;font-family:sans-serif;letter-spacing:0px;word-spacing:0px;fill:#000000;fill-opacity:1;stroke:none;stroke-width:1px;stroke-linecap:butt;stroke-linejoin:miter;stroke-opacity:1"><flowRegion
         id="flowRegion4146"><rect
           id="rect4148"
           width="262.14917"
           height="49.84071"
           x="-19.418457"
           y="217.36853" /></flowRegion><flowPara
         id="flowPara4150"></flowPara></flowRoot>    <path
       style="fill:#000000;fill-opacity:1;fill-rule:evenodd;stroke:none;stroke-width:1px;stroke-linecap:butt;stroke-linejoin:miter;stroke-opacity:1"
       d="m 0.10329,1022.5203 6.44532,0 0,23.4026 23.4555,0 0,6.4523 -29.96365,0 0,-29.8549 z"
       id="path5350"
       inkscape:connector-curvature="0" />
    <path
       style="fill:#000000;fill-opacity:1;fill-rule:evenodd;stroke:none;stroke-width:1px;stroke-linecap:butt;stroke-linejoin:miter;stroke-opacity:1"
       d="m 32.3739,1022.5203 27.84233,0 0,6.6291 -21.12482,0 0,5.0382 16.88217,0 0,6.8059 -17.05895,0 0,5.2149 21.3016,0 0,6.3639 -27.66556,0 0,-30.052 -0.005,0"
       id="path5354"
       inkscape:connector-curvature="0" />
    <path
       style="fill:#000000;fill-opacity:1;fill-rule:evenodd;stroke:none;stroke-width:1px;stroke-linecap:butt;stroke-linejoin:miter;stroke-opacity:1"
       d="m 62.92334,1022.5203 29.875,0 0,6.625 -11.875,0 0,23.5 -6.125,0 0,-23.375 -12.125,0 0,-6.7477 z"
       id="path5356"
       inkscape:connector-curvature="0" />
    <path
       style="fill:#000000;fill-opacity:1;fill-rule:evenodd;stroke:none;stroke-width:1px;stroke-linecap:butt;stroke-linejoin:miter;stroke-opacity:1"
       d="m 96.29016,1022.5203 6.31977,0 0,8.3969 -6.38606,0 0,-8.3969 z"
       id="path5358"
       inkscape:connector-curvature="0" />
    <path
       style="fill:#000000;fill-opacity:1;fill-rule:evenodd;stroke:none;stroke-width:1px;stroke-linecap:butt;stroke-linejoin:miter;stroke-opacity:1"
       d="m 187.99922,1022.5424 6.45235,0 0,11.7556 17.65558,0 0,-11.7777 6.43026,0 0,29.9195 -6.47446,0 0,-11.6894 -17.63346,0 0,11.6894 -6.43026,0 z"
       id="path5383"
       inkscape:connector-curvature="0" />
    <g
       id="g5402"
       transform="translate(-33.3544,615.26608)">
      <path
         inkscape:connector-curvature="0"
         id="path5385"
         d="m 289.73372,407.25421 6.90625,0 6.48438,17.85156 6.53515,-17.82813 3.24631,0 -0.3049,10.69141 -7.02735,19.22265 -4.9414,0 z"
         style="fill:#000000;fill-opacity:1;fill-rule:evenodd;stroke:none;stroke-width:1px;stroke-linecap:butt;stroke-linejoin:miter;stroke-opacity:1" />
      <path
         inkscape:connector-curvature="0"
         id="path5385-4"
         d="m 335.4681,407.25421 -6.90625,0 -6.48438,17.85156 -6.53515,-17.82813 -3.24631,0 0.3049,10.69141 7.02735,19.22265 4.9414,0 z"
         style="fill:#000000;fill-opacity:1;fill-rule:evenodd;stroke:none;stroke-width:1px;stroke-linecap:butt;stroke-linejoin:miter;stroke-opacity:1" />
    </g>
    <path
       style="fill:#000000;fill-opacity:1;fill-rule:evenodd;stroke:none;stroke-width:1px;stroke-linecap:butt;stroke-linejoin:miter;stroke-opacity:1"
       d="m 318.67195,1022.5203 6.46875,0 0,29.9141 -6.47656,0 z"
       id="path5421"
       inkscape:connector-curvature="0" />
    <path
       style="fill:#000000;fill-opacity:1;fill-rule:evenodd;stroke:none;stroke-width:1px;stroke-linecap:butt;stroke-linejoin:miter;stroke-opacity:1"
       d="m 327.02588,1022.5203 29.875,0 0,6.625 -11.875,0 0,23.5 -6.125,0 0,-23.375 -12.125,0 0,-6.7477 z"
       id="path5356-6"
       inkscape:connector-curvature="0" />
    <path
       style="fill:#000000;fill-opacity:1;fill-rule:evenodd;stroke:none;stroke-width:1px;stroke-linecap:butt;stroke-linejoin:miter;stroke-opacity:1"
       d="m 106.67579,1027.9285 c 0.37058,-2.6341 2.20335,-5.083 5.51562,-5.5441 l 18.51563,0.016 c 2.99986,0.029 5.86667,2.7017 5.89062,5.921 l 0,3.0311 -6.57812,0 0,-2.4186 -16.90625,0 0,5.2772 17.84375,0 c 2.6375,0.045 5.5049,2.585 5.60937,5.6383 l 0,6.7691 c -0.17686,3.3181 -2.75947,5.6345 -5.71093,5.7405 l -18.11719,0 c -3.58826,0.061 -5.91274,-2.9005 -6.08984,-6.1213 l 0,-2.7603 6.52734,0 0,2.4187 16.9375,0 0,-5.2771 -17.5625,0 c -2.53746,0.033 -5.60738,-2.1123 -5.96875,-5.9996 z"
       id="path5494"
       inkscape:connector-curvature="0"
       sodipodi:nodetypes="ccccccccccccccccccccccc" />
    <g
       id="g5545"
       transform="matrix(1,0,0,1.0176223,-231.22542,581.20651)">
      <path
         sodipodi:nodetypes="ccccccccccc"
         inkscape:connector-curvature="0"
         id="path5513"
         d="m 455.01283,439.02388 c 0.0777,-2.29558 1.69911,-5.45636 5.84375,-5.84375 l 17.59375,0 0,6.4375 -17.03125,0 0,16.96875 17,0 0,6.4375 -17.96875,0 c -2.2327,-0.14854 -5.07463,-2.14853 -5.39063,-5.39063 z"
         style="fill:#000000;fill-opacity:1;fill-rule:evenodd;stroke:none;stroke-width:1px;stroke-linecap:butt;stroke-linejoin:miter;stroke-opacity:1" />
      <path
         sodipodi:nodetypes="ccccccccccc"
         inkscape:connector-curvature="0"
         id="path5513-9"
         d="m 484.85658,439.02388 c -0.0777,-2.29558 -1.69911,-5.45636 -5.84375,-5.84375 l -17.59375,0 0,6.4375 17.03125,0 0,16.96875 -17,0 0,6.4375 17.96875,0 c 2.2327,-0.14854 5.07463,-2.14853 5.39063,-5.39063 z"
         style="fill:#000000;fill-opacity:1;fill-rule:evenodd;stroke:none;stroke-width:1px;stroke-linecap:butt;stroke-linejoin:miter;stroke-opacity:1" />
    </g>
    <path
       style="fill:#000000;fill-opacity:1;fill-rule:evenodd;stroke:none;stroke-width:1px;stroke-linecap:butt;stroke-linejoin:miter;stroke-opacity:1"
       d="m 153.62197,1027.95 c 0.37058,-2.6341 2.20335,-5.083 5.51562,-5.5441 l 18.51563,0.016 c 2.99986,0.029 5.86667,2.7017 5.89062,5.921 l 0,3.0311 -6.57812,0 0,-2.4186 -16.90625,0 0,5.2772 17.84375,0 c 2.6375,0.045 5.5049,2.585 5.60937,5.6383 l 0,6.7691 c -0.17686,3.3181 -2.75947,5.6345 -5.71093,5.7405 l -18.11719,0 c -3.58826,0.061 -5.91274,-2.9005 -6.08984,-6.1213 l 0,-2.7603 6.52734,0 0,2.4187 16.9375,0 0,-5.2771 -17.5625,0 c -2.53746,0.033 -5.60738,-2.1123 -5.96875,-5.9996 z"
       id="path5494-4"
       inkscape:connector-curvature="0"
       sodipodi:nodetypes="ccccccccccccccccccccccc" />
  </g>
</svg>
