<?xml version="1.0" encoding="utf-8"?>
<!-- Generator: Adobe Illustrator 17.0.0, SVG Export Plug-In . SVG Version: 6.00 Build 0)  -->
<!DOCTYPE svg PUBLIC "-//W3C//DTD SVG 1.1//EN" "http://www.w3.org/Graphics/SVG/1.1/DTD/svg11.dtd">
<svg version="1.1" id="Layer_1" xmlns="http://www.w3.org/2000/svg" xmlns:xlink="http://www.w3.org/1999/xlink" x="0px" y="0px"
	 width="132px" height="140px" viewBox="0 0 132 140" enable-background="new 0 0 132 140" xml:space="preserve">
<rect x="0" y="0" fill="#004169" width="132" height="140"/>
<g>
	<path fill="#FFFFFF" d="M29.2,68.8l1.2-0.3c0.1,0,0.2-0.1,0.3-0.2c0.1-0.1,0.1-0.2,0.1-0.4V57.2c0-0.1,0-0.3-0.1-0.4
		s-0.2-0.2-0.3-0.2l-1.2-0.3v-0.5H34c1,0,1.8,0.1,2.4,0.2c0.6,0.2,1.1,0.4,1.5,0.7c0.4,0.3,0.6,0.6,0.7,0.9c0.1,0.4,0.2,0.7,0.2,1.1
		s-0.1,0.8-0.2,1.2c-0.1,0.4-0.3,0.7-0.6,1c-0.3,0.3-0.6,0.5-0.9,0.7c-0.4,0.2-0.7,0.4-1.2,0.5c0.5,0,1,0.1,1.4,0.3
		c0.5,0.2,0.8,0.4,1.2,0.6c0.3,0.3,0.6,0.6,0.8,1c0.2,0.4,0.3,0.8,0.3,1.3s-0.1,1-0.2,1.3c-0.1,0.4-0.3,0.7-0.6,1
		c-0.3,0.3-0.6,0.5-0.9,0.7s-0.7,0.3-1.1,0.5C36.4,68.9,36,69,35.6,69c-0.4,0-0.9,0.1-1.3,0.1h-5.1L29.2,68.8L29.2,68.8z M33.5,62.1
		c0.6,0,1.2-0.1,1.6-0.2s0.8-0.3,1.1-0.5c0.3-0.2,0.5-0.5,0.6-0.8s0.2-0.7,0.2-1.1c0-0.5-0.1-1-0.2-1.3c-0.1-0.4-0.3-0.7-0.6-0.9
		s-0.6-0.4-1-0.5s-0.9-0.2-1.4-0.2h-1.2V62h0.9V62.1z M34.6,68.5c1,0,1.8-0.2,2.3-0.6s0.8-1.1,0.8-2.1c0-0.6-0.1-1-0.2-1.4
		s-0.4-0.7-0.7-0.9s-0.7-0.4-1.1-0.5c-0.5-0.1-1-0.2-1.6-0.2h-1.5v5.8L34.6,68.5L34.6,68.5z"/>
	<path fill="#FFFFFF" d="M52.1,66.6v0.8c-0.3,0.2-0.6,0.5-0.9,0.7s-0.7,0.5-1.1,0.7s-0.8,0.4-1.3,0.5s-0.9,0.2-1.4,0.2
		c-1,0-1.8-0.2-2.6-0.5c-0.8-0.3-1.4-0.8-2-1.4s-1-1.3-1.3-2.2c-0.3-0.9-0.4-1.8-0.4-2.9c0-1,0.2-2,0.5-2.8c0.3-0.9,0.8-1.6,1.3-2.2
		c0.6-0.6,1.2-1.1,2-1.4s1.6-0.5,2.5-0.5c0.3,0,0.7,0,1,0.1c0.4,0,0.8,0.1,1.1,0.2c0.4,0.1,0.7,0.2,1.1,0.2c0.3,0.1,0.6,0.2,0.9,0.3
		v3.1H51l-0.6-1.7c0-0.1-0.1-0.2-0.2-0.3c-0.1-0.1-0.2-0.1-0.2-0.2c-0.2-0.1-0.4-0.2-0.7-0.3c-0.3-0.1-0.5-0.2-0.8-0.3
		c-0.3-0.1-0.6-0.1-0.9-0.2c-0.3,0-0.6-0.1-0.8-0.1c-0.6,0-1.1,0.1-1.6,0.4c-0.5,0.2-0.9,0.6-1.2,1.1s-0.6,1.1-0.8,1.8
		c-0.2,0.7-0.3,1.6-0.3,2.5c0,2,0.4,3.5,1.3,4.5s2.1,1.5,3.7,1.5c0.5,0,1-0.1,1.4-0.2s0.8-0.3,1.1-0.4c0.3-0.2,0.6-0.4,0.9-0.6
		c0.2-0.2,0.5-0.4,0.7-0.6h0.1L52.1,66.6L52.1,66.6z"/>
	<path fill="#FFFFFF" d="M51.9,68.8l1.1-0.2c0.1,0,0.2-0.1,0.3-0.1c0.1-0.1,0.2-0.1,0.3-0.2c0.1-0.1,0.2-0.2,0.3-0.2
		c0.1-0.1,0.1-0.2,0.2-0.2l3.4-4.8c-0.3-0.1-0.6-0.2-1-0.3c-0.3-0.1-0.7-0.4-1-0.6c-0.3-0.3-0.5-0.6-0.7-1s-0.3-0.8-0.3-1.4
		c0-0.3,0-0.5,0.1-0.8s0.2-0.6,0.3-0.8c0.1-0.3,0.3-0.5,0.6-0.8c0.2-0.2,0.5-0.5,0.9-0.7s0.8-0.3,1.3-0.5c0.5-0.1,1.1-0.2,1.7-0.2
		h5.1v0.5l-1.2,0.3c-0.1,0-0.2,0.1-0.3,0.2c-0.1,0.1-0.1,0.2-0.1,0.4v10.7c0,0.1,0,0.3,0.1,0.4s0.2,0.2,0.3,0.2l1.2,0.3v0.5h-5.2V69
		l1.4-0.3c0.1,0,0.2-0.1,0.3-0.2c0.1-0.1,0.1-0.2,0.1-0.4v-4.8h-1.9l-3.3,4.9c-0.1,0.2-0.3,0.4-0.4,0.5c-0.1,0.2-0.2,0.3-0.4,0.4
		c-0.1,0.1-0.3,0.2-0.5,0.2c-0.2,0.1-0.4,0.1-0.7,0.1H52v-0.6H51.9z M60.9,62.5v-5.9h-1.5c-1,0-1.8,0.3-2.3,0.8s-0.8,1.3-0.8,2.3
		c0,0.4,0.1,0.7,0.2,1.1c0.1,0.3,0.3,0.6,0.5,0.9s0.5,0.4,0.9,0.6c0.4,0.1,0.8,0.2,1.3,0.2H60.9z"/>
	<path fill="#FFFFFF" d="M29.2,92.6l1.2-0.3c0.1,0,0.2-0.1,0.3-0.2c0.1-0.1,0.1-0.2,0.1-0.4V81c0-0.1,0-0.3-0.1-0.4
		c-0.1-0.1-0.2-0.2-0.3-0.2l-1.2-0.3v-0.5h9.4v3.5h-0.5l-0.9-2.4c0-0.1-0.1-0.2-0.1-0.2c-0.1-0.1-0.1-0.1-0.3-0.1h-4.2v5.2h2.3
		c0.4,0,0.8,0,1.2,0.1c0.4,0,0.8,0.1,1.1,0.2c0.4,0.1,0.7,0.3,1,0.4c0.3,0.2,0.5,0.4,0.8,0.7c0.2,0.3,0.4,0.6,0.5,0.9
		c0.1,0.4,0.2,0.8,0.2,1.2c0,0.7-0.1,1.3-0.4,1.8s-0.6,0.9-1.1,1.2c-0.4,0.3-1,0.5-1.5,0.6c-0.6,0.1-1.2,0.2-1.8,0.2h-5.6L29.2,92.6
		L29.2,92.6z M34.5,92.3c0.5,0,1-0.1,1.4-0.2c0.4-0.1,0.7-0.3,1-0.5s0.5-0.5,0.6-0.9s0.2-0.8,0.2-1.3c0-0.6-0.1-1.1-0.2-1.5
		s-0.4-0.7-0.6-1c-0.3-0.2-0.7-0.4-1.1-0.5c-0.5-0.1-1-0.2-1.6-0.2h-1.5v5.9h1.8L34.5,92.3L34.5,92.3z"/>
	<path fill="#FFFFFF" d="M43,93.3c-0.1,0-0.2,0-0.4,0c-0.1,0-0.3,0-0.4,0s-0.3,0-0.4-0.1c-0.1,0-0.2-0.1-0.3-0.1l0.4-1.8h0.2
		c0.1,0,0.2,0.1,0.3,0.1c0.1,0,0.3,0.1,0.4,0.1s0.3,0.1,0.4,0.1s0.2,0,0.3,0c0.3,0,0.6,0,0.9-0.1s0.5-0.2,0.6-0.4
		c0.1-0.1,0.2-0.2,0.3-0.3c0.1-0.1,0.2-0.3,0.2-0.4c0.1-0.1,0.1-0.3,0.2-0.4c0.1-0.1,0.1-0.3,0.2-0.3l-0.3-0.6l-4.3-8
		c-0.1-0.1-0.1-0.2-0.2-0.4c-0.1-0.1-0.2-0.2-0.3-0.2l-0.9-0.2v-0.5h4.7v0.5l-1.7,0.3l3.2,6.1l0.5,0.9l0.1,0.2l3.3-7.2l-1.6-0.4
		v-0.5h3.7v0.5l-0.8,0.2c-0.1,0-0.2,0.1-0.4,0.2c-0.1,0.1-0.2,0.2-0.2,0.3l-4.3,9.2c-0.3,0.6-0.6,1.1-0.8,1.5
		c-0.3,0.4-0.5,0.7-0.8,0.9s-0.6,0.4-0.9,0.5C43.7,93.2,43.3,93.3,43,93.3z"/>
	<path fill="#FFFFFF" d="M50.9,92.3h0.7c0.4-0.4,0.7-0.9,1.1-1.4c0.3-0.5,0.6-1.1,0.9-1.7c0.3-0.6,0.5-1.2,0.8-1.8
		c0.2-0.6,0.4-1.3,0.6-2s0.3-1.3,0.4-2s0.1-1.3,0.1-1.9c0-0.2,0-0.4,0-0.5s-0.1-0.2-0.1-0.3c-0.1-0.1-0.1-0.1-0.2-0.2
		c-0.1,0-0.1,0-0.2-0.1l-1.3-0.3v-0.5h10.2v0.5l-1.2,0.3c-0.1,0-0.2,0.1-0.3,0.2c-0.1,0.1-0.1,0.2-0.1,0.4v11.3h1.8v4.1h-0.5
		l-0.9-3.1c0-0.1-0.1-0.2-0.1-0.2S62.5,93,62.3,93h-9.4c-0.1,0-0.2,0-0.3,0.1s-0.1,0.1-0.1,0.2l-0.9,3.1h-0.5v-4.1H50.9z M60.4,92.3
		V80.5h-4c0,1.3-0.1,2.6-0.4,3.8c-0.2,1.2-0.5,2.3-0.8,3.3s-0.7,1.9-1.2,2.7c-0.4,0.8-0.9,1.5-1.3,2H60.4z"/>
	<path fill="#FFFFFF" d="M71,93.3c-1,0-1.9-0.2-2.6-0.5c-0.8-0.3-1.4-0.8-1.9-1.4s-0.9-1.3-1.2-2.2c-0.3-0.9-0.4-1.8-0.4-2.8
		s0.1-1.9,0.4-2.7s0.7-1.6,1.2-2.2c0.5-0.6,1.2-1.1,1.9-1.5c0.8-0.4,1.6-0.5,2.6-0.5s1.9,0.2,2.7,0.6c0.8,0.4,1.4,0.9,1.9,1.5
		s0.9,1.4,1.1,2.2s0.4,1.7,0.4,2.7c0,0.6-0.1,1.1-0.2,1.7c-0.1,0.6-0.3,1.1-0.5,1.6s-0.5,1-0.8,1.4s-0.7,0.8-1.2,1.2
		c-0.5,0.3-1,0.6-1.6,0.8S71.7,93.3,71,93.3z M71.2,92.6c0.7,0,1.3-0.2,1.8-0.5s0.9-0.7,1.3-1.3c0.3-0.5,0.6-1.2,0.8-1.9
		c0.2-0.7,0.3-1.5,0.3-2.3c0-1-0.1-1.8-0.3-2.6c-0.2-0.8-0.4-1.5-0.8-2.1s-0.8-1-1.4-1.3s-1.2-0.5-2-0.5c-0.7,0-1.3,0.2-1.8,0.5
		s-0.9,0.8-1.3,1.3c-0.3,0.5-0.6,1.2-0.7,1.9c-0.2,0.7-0.2,1.4-0.2,2.2c0,0.9,0.1,1.8,0.3,2.6c0.2,0.8,0.4,1.5,0.8,2.1
		s0.8,1,1.4,1.4S70.4,92.6,71.2,92.6z"/>
	<path fill="#FFFFFF" d="M78.2,92.6l1.2-0.3c0.1,0,0.2-0.1,0.3-0.2c0.1-0.1,0.1-0.2,0.1-0.4V81c0-0.1,0-0.3-0.1-0.4
		c-0.1-0.1-0.2-0.2-0.3-0.2l-1.2-0.3v-0.5H83c1,0,1.8,0.1,2.4,0.2c0.6,0.2,1.1,0.4,1.5,0.7s0.6,0.6,0.7,0.9c0.1,0.4,0.2,0.7,0.2,1.1
		c0,0.4-0.1,0.8-0.2,1.2s-0.3,0.7-0.6,1c-0.3,0.3-0.6,0.5-0.9,0.7c-0.4,0.2-0.7,0.4-1.2,0.5c0.5,0,1,0.1,1.4,0.3
		c0.5,0.2,0.8,0.4,1.2,0.6c0.3,0.3,0.6,0.6,0.8,1c0.2,0.4,0.3,0.8,0.3,1.3s-0.1,1-0.2,1.3c-0.1,0.4-0.3,0.7-0.6,1
		c-0.3,0.3-0.6,0.5-0.9,0.7s-0.7,0.3-1.1,0.5c-0.4,0.1-0.8,0.2-1.2,0.2c-0.4,0-0.9,0.1-1.3,0.1h-5.1L78.2,92.6L78.2,92.6z
		 M82.5,85.9c0.6,0,1.2-0.1,1.6-0.2c0.4-0.1,0.8-0.3,1.1-0.5c0.3-0.2,0.5-0.5,0.6-0.8s0.2-0.7,0.2-1.1c0-0.5-0.1-1-0.2-1.3
		c-0.1-0.4-0.3-0.7-0.6-0.9c-0.3-0.2-0.6-0.4-1-0.5s-0.9-0.2-1.4-0.2h-1.2v5.4L82.5,85.9L82.5,85.9z M83.6,92.3c1,0,1.8-0.2,2.3-0.6
		s0.8-1.1,0.8-2.1c0-0.6-0.1-1-0.2-1.4s-0.4-0.7-0.7-0.9c-0.3-0.2-0.7-0.4-1.1-0.5c-0.5-0.1-1-0.2-1.6-0.2h-1.5v5.8L83.6,92.3
		L83.6,92.3z"/>
	<path fill="#FFFFFF" d="M88.6,92.6l0.8-0.2c0.1,0,0.2-0.1,0.3-0.2c0.1-0.1,0.2-0.2,0.2-0.4l3.8-10l1.2-2.2h0.4l4.7,12.2
		c0.1,0.1,0.1,0.2,0.2,0.4c0.1,0.1,0.2,0.2,0.3,0.2l0.8,0.2v0.5h-4.7v-0.5l1.7-0.3l-1.6-4.2H92l-1.5,4.1l1.6,0.4v0.5h-3.7v-0.5H88.6
		z M96.6,87.4L95,83.3L94.5,82l0,0l-2,5.4L96.6,87.4L96.6,87.4z"/>
	<path fill="#FFFFFF" d="M35.5,117.2c-1,0-1.9-0.2-2.6-0.5c-0.8-0.3-1.4-0.8-1.9-1.4s-0.9-1.3-1.2-2.2c-0.3-0.9-0.4-1.8-0.4-2.8
		s0.1-1.9,0.4-2.7s0.7-1.6,1.2-2.2c0.5-0.6,1.2-1.1,1.9-1.5c0.8-0.4,1.6-0.5,2.6-0.5s1.9,0.2,2.7,0.6c0.8,0.4,1.4,0.9,1.9,1.5
		s0.9,1.4,1.1,2.2s0.4,1.7,0.4,2.7c0,0.6-0.1,1.1-0.2,1.7c-0.1,0.6-0.3,1.1-0.5,1.6s-0.5,1-0.8,1.4s-0.7,0.8-1.2,1.2
		c-0.5,0.3-1,0.6-1.6,0.8S36.2,117.2,35.5,117.2z M35.6,116.5c0.7,0,1.3-0.2,1.8-0.5s0.9-0.7,1.3-1.3c0.3-0.5,0.6-1.2,0.8-1.9
		c0.2-0.7,0.3-1.5,0.3-2.3c0-1-0.1-1.8-0.3-2.6c-0.2-0.8-0.4-1.5-0.8-2.1s-0.8-1-1.4-1.3s-1.2-0.5-2-0.5c-0.7,0-1.3,0.2-1.8,0.5
		s-0.9,0.8-1.3,1.3c-0.3,0.5-0.6,1.2-0.7,1.9c-0.2,0.7-0.2,1.4-0.2,2.2c0,0.9,0.1,1.8,0.3,2.6c0.2,0.8,0.4,1.5,0.8,2.1
		s0.8,1,1.4,1.4S34.9,116.5,35.6,116.5z"/>
	<path fill="#FFFFFF" d="M42.3,116.1H43c0.4-0.4,0.7-0.9,1.1-1.4c0.3-0.5,0.6-1.1,0.9-1.7c0.3-0.6,0.5-1.2,0.8-1.8
		c0.2-0.6,0.4-1.3,0.6-2s0.3-1.3,0.4-2s0.1-1.3,0.1-1.9c0-0.2,0-0.4,0-0.5s-0.1-0.2-0.1-0.3c-0.1-0.1-0.1-0.1-0.2-0.2
		c-0.1,0-0.1,0-0.2-0.1l-1.3-0.3v-0.3h10.2v0.5l-1.2,0.3c-0.1,0-0.2,0.1-0.3,0.2c-0.1,0.1-0.1,0.2-0.1,0.4v11.3h1.8v4.1H55l-0.9-3.1
		c0-0.1-0.1-0.2-0.1-0.2s-0.1-0.1-0.3-0.1h-9.4c-0.1,0-0.2,0-0.3,0.1s-0.1,0.1-0.1,0.2l-0.9,3.1h-0.5v-4.3H42.3z M51.8,116.1v-11.8
		h-4c0,1.3-0.1,2.6-0.4,3.8c-0.2,1.2-0.5,2.3-0.8,3.3s-0.7,1.9-1.2,2.7c-0.4,0.8-0.9,1.5-1.3,2H51.8z"/>
	<path fill="#FFFFFF" d="M56.2,116.4l1.2-0.3c0.1,0,0.2-0.1,0.3-0.2c0.1-0.1,0.1-0.2,0.1-0.4v-10.7c0-0.1,0-0.3-0.1-0.4
		c-0.1-0.1-0.2-0.2-0.3-0.2l-1.2-0.3v-0.3h9.7v3.1h-0.5l-0.7-2c0-0.1-0.1-0.2-0.1-0.2c-0.1-0.1-0.1-0.1-0.3-0.1h-4.6v5.3h3
		c0.1,0,0.2,0,0.3-0.1c0.1-0.1,0.1-0.1,0.1-0.2l0.5-1.6h0.5v4.5h-0.5l-0.5-1.6c0-0.1-0.1-0.2-0.1-0.2c-0.1-0.1-0.2-0.1-0.3-0.1h-3
		v5.8h5.5c0.1,0,0.2,0,0.3-0.1c0.1-0.1,0.1-0.1,0.1-0.2l0.6-2.3h0.5v3.4H56.2V116.4z"/>
	<path fill="#FFFFFF" d="M78.9,114.3v0.8c-0.3,0.2-0.6,0.5-0.9,0.7s-0.7,0.5-1.1,0.7s-0.8,0.4-1.3,0.5s-0.9,0.2-1.4,0.2
		c-1,0-1.8-0.2-2.6-0.5c-0.8-0.3-1.4-0.8-2-1.4c-0.6-0.6-1-1.3-1.3-2.2s-0.4-1.8-0.4-2.9c0-1,0.2-2,0.5-2.8c0.3-0.9,0.8-1.6,1.3-2.2
		c0.6-0.6,1.2-1.1,2-1.4c0.8-0.3,1.6-0.5,2.5-0.5c0.3,0,0.7,0,1,0.1c0.4,0,0.8,0.1,1.1,0.2c0.4,0.1,0.7,0.2,1.1,0.2
		c0.3,0.1,0.6,0.2,0.9,0.3v3.1h-0.5l-0.6-1.7c0-0.1-0.1-0.2-0.2-0.3s-0.2-0.1-0.2-0.2c-0.2-0.1-0.4-0.2-0.7-0.3
		c-0.3-0.1-0.5-0.2-0.8-0.3s-0.6-0.1-0.9-0.2c-0.3,0-0.6-0.1-0.8-0.1c-0.6,0-1.1,0.1-1.6,0.4c-0.5,0.2-0.9,0.6-1.2,1.1
		s-0.6,1.1-0.8,1.8c-0.2,0.7-0.3,1.6-0.3,2.5c0,2,0.4,3.5,1.3,4.5s2.1,1.5,3.7,1.5c0.5,0,1-0.1,1.4-0.2c0.4-0.1,0.8-0.3,1.1-0.4
		c0.3-0.2,0.6-0.4,0.9-0.6c0.2-0.2,0.5-0.4,0.7-0.6h0.1L78.9,114.3L78.9,114.3z"/>
	<path fill="#FFFFFF" d="M90.8,114.3v0.8c-0.3,0.2-0.6,0.5-0.9,0.7s-0.7,0.5-1.1,0.7s-0.8,0.4-1.3,0.5s-0.9,0.2-1.4,0.2
		c-1,0-1.8-0.2-2.6-0.5c-0.8-0.3-1.4-0.8-2-1.4c-0.6-0.6-1-1.3-1.3-2.2s-0.4-1.8-0.4-2.9c0-1,0.2-2,0.5-2.8c0.3-0.9,0.8-1.6,1.3-2.2
		c0.6-0.6,1.2-1.1,2-1.4c0.8-0.3,1.6-0.5,2.5-0.5c0.3,0,0.7,0,1,0.1c0.4,0,0.8,0.1,1.1,0.2c0.4,0.1,0.7,0.2,1.1,0.2
		c0.3,0.1,0.6,0.2,0.9,0.3v3.1h-0.5l-0.6-1.7c0-0.1-0.1-0.2-0.2-0.3s-0.2-0.1-0.2-0.2c-0.2-0.1-0.4-0.2-0.7-0.3
		c-0.3-0.1-0.5-0.2-0.8-0.3s-0.6-0.1-0.9-0.2c-0.3,0-0.6-0.1-0.8-0.1c-0.6,0-1.1,0.1-1.6,0.4c-0.5,0.2-0.9,0.6-1.2,1.1
		s-0.6,1.1-0.8,1.8c-0.2,0.7-0.3,1.6-0.3,2.5c0,2,0.4,3.5,1.3,4.5s2.1,1.5,3.7,1.5c0.5,0,1-0.1,1.4-0.2c0.4-0.1,0.8-0.3,1.1-0.4
		c0.3-0.2,0.6-0.4,0.9-0.6c0.2-0.2,0.5-0.4,0.7-0.6h0.1L90.8,114.3L90.8,114.3z"/>
	<path fill="#FFFFFF" d="M91.6,116.4l1.2-0.3c0.1,0,0.2-0.1,0.3-0.2c0.1-0.1,0.1-0.2,0.1-0.4v-10.7c0-0.1,0-0.3-0.1-0.4
		c-0.1-0.1-0.2-0.2-0.3-0.2l-1.2-0.3v-0.3h5.1v0.5l-1.2,0.3c-0.1,0-0.2,0.1-0.3,0.2c-0.1,0.1-0.1,0.2-0.1,0.4v4.6h2.1
		c0.4,0,0.8,0,1.2,0.1c0.4,0,0.8,0.1,1.1,0.2c0.3,0.1,0.7,0.3,1,0.4c0.3,0.2,0.5,0.4,0.8,0.7c0.2,0.3,0.4,0.6,0.5,0.9
		c0.1,0.4,0.2,0.8,0.2,1.2c0,0.7-0.1,1.3-0.4,1.8s-0.6,0.9-1.1,1.2c-0.4,0.3-1,0.5-1.5,0.6c-0.6,0.1-1.2,0.2-1.8,0.2h-5.4v-0.5
		L91.6,116.4L91.6,116.4z M96.7,116.1c0.5,0,1-0.1,1.4-0.2c0.4-0.1,0.7-0.3,1-0.5s0.5-0.5,0.6-0.9s0.2-0.8,0.2-1.3
		c0-0.6-0.1-1.1-0.2-1.5s-0.4-0.7-0.6-1c-0.3-0.2-0.7-0.4-1.1-0.5c-0.5-0.1-1-0.2-1.6-0.2H95v5.9h1.7V116.1z M101.7,116.4l1.2-0.3
		c0.1,0,0.2-0.1,0.3-0.2c0.1-0.1,0.1-0.2,0.1-0.4v-10.7c0-0.1,0-0.3-0.1-0.4c-0.1-0.1-0.2-0.2-0.3-0.2l-1.2-0.3v-0.3h5.1v0.5
		l-1.2,0.3c-0.1,0-0.2,0.1-0.3,0.2c-0.1,0.1-0.1,0.2-0.1,0.4v10.6c0,0.1,0,0.3,0.1,0.4c0.1,0.1,0.2,0.2,0.3,0.2l1.2,0.3v0.5h-5
		L101.7,116.4L101.7,116.4z"/>
</g>
</svg>
