{
    "asset": {
        "copyright": "(C)2018 Zyrox",
        "generator": "Maya2glTF V0.9.10 b7c0eed",
        "version": "2.0"
    },
    "scenes": [
        {
            "nodes": [
                0
            ]
        }
    ],
    "scene": 0,
    "nodes": [
        {
            "children": [
                1
            ],
            "translation": [
                15.181880950927737,
                4.824707508087158,
                11.654624938964844
            ],
            "name": "simplified_Extension_2"
        },
        {
            "mesh": 0,
            "translation": [
                -15.181880950927737,
                -4.824707508087158,
                -11.654624938964844
            ],
            "name": "simplified_Extension_2:PIV"
        }
    ],
    "meshes": [
        {
            "primitives": [
                {
                    "attributes": {
                        "NORMAL": 1,
                        "POSITION": 2,
                        "TANGENT": 3,
                        "TEXCOORD_0": 4
                    },
                    "indices": 0,
                    "mode": 4,
                    "material": 0
                },
                {
                    "attributes": {
                        "NORMAL": 6,
                        "POSITION": 7,
                        "TANGENT": 8,
                        "TEXCOORD_0": 9
                    },
                    "indices": 5,
                    "mode": 4,
                    "material": 1
                },
                {
                    "attributes": {
                        "NORMAL": 11,
                        "POSITION": 12,
                        "TANGENT": 13,
                        "TEXCOORD_0": 14
                    },
                    "indices": 10,
                    "mode": 4,
                    "material": 2
                },
                {
                    "attributes": {
                        "NORMAL": 16,
                        "POSITION": 17,
                        "TANGENT": 18,
                        "TEXCOORD_0": 19
                    },
                    "indices": 15,
                    "mode": 4,
                    "material": 3
                },
                {
                    "attributes": {
                        "NORMAL": 21,
                        "POSITION": 22,
                        "TANGENT": 23,
                        "TEXCOORD_0": 24
                    },
                    "indices": 20,
                    "mode": 4,
                    "material": 4
                },
                {
                    "attributes": {
                        "NORMAL": 26,
                        "POSITION": 27,
                        "TANGENT": 28,
                        "TEXCOORD_0": 29
                    },
                    "indices": 25,
                    "mode": 4,
                    "material": 5
                },
                {
                    "attributes": {
                        "NORMAL": 31,
                        "POSITION": 32,
                        "TANGENT": 33,
                        "TEXCOORD_0": 34
                    },
                    "indices": 30,
                    "mode": 4,
                    "material": 6
                },
                {
                    "attributes": {
                        "NORMAL": 36,
                        "POSITION": 37,
                        "TANGENT": 38,
                        "TEXCOORD_0": 39
                    },
                    "indices": 35,
                    "mode": 4,
                    "material": 7
                }
            ],
            "name": "simplified_Extension_2Shape"
        }
    ],
    "accessors": [
        {
            "bufferView": 0,
            "byteOffset": 0,
            "componentType": 5123,
            "count": 360,
            "max": [
                239
            ],
            "min": [
                0
            ],
            "type": "SCALAR"
        },
        {
            "bufferView": 1,
            "byteOffset": 0,
            "componentType": 5126,
            "count": 240,
            "max": [
                1.0,
                0.8656044006347656,
                0.8655938506126404
            ],
            "min": [
                -1.0,
                -0.8656007051467896,
                -0.8655939102172852
            ],
            "type": "VEC3"
        },
        {
            "bufferView": 1,
            "byteOffset": 2880,
            "componentType": 5126,
            "count": 240,
            "max": [
                -16.690881729125978,
                6.293685436248779,
                -43.49187088012695
            ],
            "min": [
                -34.89957427978516,
                3.589250087738037,
                -45.0802116394043
            ],
            "type": "VEC3"
        },
        {
            "bufferView": 2,
            "byteOffset": 0,
            "componentType": 5126,
            "count": 240,
            "max": [
                1.0,
                0.5007606148719788,
                0.8655858039855957,
                1.0
            ],
            "min": [
                0.0,
                -0.5007606148719788,
                -0.8655858039855957,
                1.0
            ],
            "type": "VEC4"
        },
        {
            "bufferView": 3,
            "byteOffset": 0,
            "componentType": 5126,
            "count": 240,
            "max": [
                0.875,
                1.0
            ],
            "min": [
                0.125,
                0.0
            ],
            "type": "VEC2"
        },
        {
            "bufferView": 0,
            "byteOffset": 720,
            "componentType": 5123,
            "count": 6156,
            "max": [
                3815
            ],
            "min": [
                0
            ],
            "type": "SCALAR"
        },
        {
            "bufferView": 1,
            "byteOffset": 5760,
            "componentType": 5126,
            "count": 3816,
            "max": [
                1.0,
                1.0,
                1.0
            ],
            "min": [
                -1.0,
                -1.0,
                -1.0
            ],
            "type": "VEC3"
        },
        {
            "bufferView": 1,
            "byteOffset": 51552,
            "componentType": 5126,
            "count": 3816,
            "max": [
                56.63371276855469,
                15.432825088500977,
                40.21600341796875
            ],
            "min": [
                -33.76344299316406,
                0.6642374396324158,
                -16.277963638305665
            ],
            "type": "VEC3"
        },
        {
            "bufferView": 2,
            "byteOffset": 3840,
            "componentType": 5126,
            "count": 3816,
            "max": [
                1.0,
                1.0,
                1.0,
                1.0
            ],
            "min": [
                -1.0,
                -1.0,
                -1.0,
                -1.0
            ],
            "type": "VEC4"
        },
        {
            "bufferView": 3,
            "byteOffset": 1920,
            "componentType": 5126,
            "count": 3816,
            "max": [
                2.161195755004883,
                1.216651201248169
            ],
            "min": [
                -0.8169209957122803,
                -0.21665215492248536
            ],
            "type": "VEC2"
        },
        {
            "bufferView": 0,
            "byteOffset": 13032,
            "componentType": 5123,
            "count": 36510,
            "max": [
                13513
            ],
            "min": [
                0
            ],
            "type": "SCALAR"
        },
        {
            "bufferView": 1,
            "byteOffset": 97344,
            "componentType": 5126,
            "count": 13514,
            "max": [
                1.0,
                1.0,
                1.0
            ],
            "min": [
                -1.0,
                -1.0,
                -1.0
            ],
            "type": "VEC3"
        },
        {
            "bufferView": 1,
            "byteOffset": 259512,
            "componentType": 5126,
            "count": 13514,
            "max": [
                68.11006927490235,
                18.63487052917481,
                68.69125366210938
            ],
            "min": [
                -37.74630737304688,
                -8.985455513000489,
                -45.38200378417969
            ],
            "type": "VEC3"
        },
        {
            "bufferView": 2,
            "byteOffset": 64896,
            "componentType": 5126,
            "count": 13514,
            "max": [
                1.0,
                1.0,
                1.0,
                1.0
            ],
            "min": [
                -1.0,
                -1.0,
                -1.0,
                -1.0
            ],
            "type": "VEC4"
        },
        {
            "bufferView": 3,
            "byteOffset": 32448,
            "componentType": 5126,
            "count": 13514,
            "max": [
                6.619980812072754,
                2.068277359008789
            ],
            "min": [
                -5.618952751159668,
                -1.094597339630127
            ],
            "type": "VEC2"
        },
        {
            "bufferView": 0,
            "byteOffset": 86052,
            "componentType": 5123,
            "count": 1062,
            "max": [
                280
            ],
            "min": [
                0
            ],
            "type": "SCALAR"
        },
        {
            "bufferView": 1,
            "byteOffset": 421680,
            "componentType": 5126,
            "count": 281,
            "max": [
                0.0,
                1.0,
                4.223088296839706e-7
            ],
            "min": [
                -0.0293304193764925,
                0.9995697736740112,
                -3.187710717611481e-7
            ],
            "type": "VEC3"
        },
        {
            "bufferView": 1,
            "byteOffset": 425052,
            "componentType": 5126,
            "count": 281,
            "max": [
                61.35384368896485,
                18.63487052917481,
                64.00910186767578
            ],
            "min": [
                -24.969633102416993,
                6.792758941650391,
                -37.74140167236328
            ],
            "type": "VEC3"
        },
        {
            "bufferView": 2,
            "byteOffset": 281120,
            "componentType": 5126,
            "count": 281,
            "max": [
                1.0,
                7.85845841733135e-8,
                0.2880679965019226,
                1.0
            ],
            "min": [
                0.0,
                -3.628075972983425e-8,
                -1.0,
                -1.0
            ],
            "type": "VEC4"
        },
        {
            "bufferView": 3,
            "byteOffset": 140560,
            "componentType": 5126,
            "count": 281,
            "max": [
                2.565993309020996,
                2.0454163551330568
            ],
            "min": [
                -1.565993070602417,
                -1.0655417442321778
            ],
            "type": "VEC2"
        },
        {
            "bufferView": 0,
            "byteOffset": 88176,
            "componentType": 5123,
            "count": 4662,
            "max": [
                1880
            ],
            "min": [
                0
            ],
            "type": "SCALAR"
        },
        {
            "bufferView": 1,
            "byteOffset": 428424,
            "componentType": 5126,
            "count": 1881,
            "max": [
                1.0,
                1.0,
                1.0
            ],
            "min": [
                -1.0,
                -1.0,
                -1.0
            ],
            "type": "VEC3"
        },
        {
            "bufferView": 1,
            "byteOffset": 450996,
            "componentType": 5126,
            "count": 1881,
            "max": [
                67.95332336425781,
                14.889540672302246,
                68.16278076171875
            ],
            "min": [
                -37.6906967163086,
                0.9678287506103516,
                -43.50135803222656
            ],
            "type": "VEC3"
        },
        {
            "bufferView": 2,
            "byteOffset": 285616,
            "componentType": 5126,
            "count": 1881,
            "max": [
                1.0,
                0.9999703764915466,
                1.0,
                1.0
            ],
            "min": [
                -1.0,
                -0.9999703764915466,
                -1.0,
                -1.0
            ],
            "type": "VEC4"
        },
        {
            "bufferView": 3,
            "byteOffset": 142808,
            "componentType": 5126,
            "count": 1881,
            "max": [
                4.805504322052002,
                0.6699385046958923
            ],
            "min": [
                -3.633583068847656,
                0.12507402896881104
            ],
            "type": "VEC2"
        },
        {
            "bufferView": 0,
            "byteOffset": 97500,
            "componentType": 5123,
            "count": 3918,
            "max": [
                891
            ],
            "min": [
                0
            ],
            "type": "SCALAR"
        },
        {
            "bufferView": 1,
            "byteOffset": 473568,
            "componentType": 5126,
            "count": 892,
            "max": [
                0.0000018995834807356005,
                1.0,
                0.00001369818619423313
            ],
            "min": [
                -1.0,
                0.0,
                -0.0000015163039961407777
            ],
            "type": "VEC3"
        },
        {
            "bufferView": 1,
            "byteOffset": 484272,
            "componentType": 5126,
            "count": 892,
            "max": [
                67.51507568359375,
                15.681715965270996,
                67.59040069580078
            ],
            "min": [
                -37.60402297973633,
                8.29449462890625,
                -43.360015869140628
            ],
            "type": "VEC3"
        },
        {
            "bufferView": 2,
            "byteOffset": 315712,
            "componentType": 5126,
            "count": 892,
            "max": [
                1.0,
                0.000002770063929347089,
                0.999962568283081,
                1.0
            ],
            "min": [
                -0.9389525651931764,
                -0.412267804145813,
                -0.7511952519416809,
                -1.0
            ],
            "type": "VEC4"
        },
        {
            "bufferView": 3,
            "byteOffset": 157856,
            "componentType": 5126,
            "count": 892,
            "max": [
                6.619980812072754,
                3.5323238372802736
            ],
            "min": [
                -5.618952751159668,
                -2.5323233604431154
            ],
            "type": "VEC2"
        },
        {
            "bufferView": 0,
            "byteOffset": 105336,
            "componentType": 5123,
            "count": 30,
            "max": [
                15
            ],
            "min": [
                0
            ],
            "type": "SCALAR"
        },
        {
            "bufferView": 1,
            "byteOffset": 494976,
            "componentType": 5126,
            "count": 16,
            "max": [
                0.000002824868488460197,
                0.0,
                -1.0
            ],
            "min": [
                -0.0000011776153314713156,
                0.0,
                -1.0
            ],
            "type": "VEC3"
        },
        {
            "bufferView": 1,
            "byteOffset": 495168,
            "componentType": 5126,
            "count": 16,
            "max": [
                -16.70984268188477,
                3.1493189334869386,
                -43.49745178222656
            ],
            "min": [
                -33.26587677001953,
                0.8195056915283203,
                -43.49745178222656
            ],
            "type": "VEC3"
        },
        {
            "bufferView": 2,
            "byteOffset": 329984,
            "componentType": 5126,
            "count": 16,
            "max": [
                1.0,
                8.573823606639054e-8,
                0.000002824868488460197,
                -1.0
            ],
            "min": [
                1.0,
                -1.0283461904236901e-7,
                -0.0000011776153314713156,
                -1.0
            ],
            "type": "VEC4"
        },
        {
            "bufferView": 3,
            "byteOffset": 164992,
            "componentType": 5126,
            "count": 16,
            "max": [
                0.929461658000946,
                0.9492629170417786
            ],
            "min": [
                0.31289899349212649,
                0.6333346962928772
            ],
            "type": "VEC2"
        },
        {
            "bufferView": 0,
            "byteOffset": 105396,
            "componentType": 5123,
            "count": 6,
            "max": [
                3
            ],
            "min": [
                0
            ],
            "type": "SCALAR"
        },
        {
            "bufferView": 1,
            "byteOffset": 495360,
            "componentType": 5126,
            "count": 4,
            "max": [
                0.0,
                1.0,
                0.0
            ],
            "min": [
                0.0,
                1.0,
                0.0
            ],
            "type": "VEC3"
        },
        {
            "bufferView": 1,
            "byteOffset": 495408,
            "componentType": 5126,
            "count": 4,
            "max": [
                -37.43511199951172,
                15.51567840576172,
                18.2406063079834
            ],
            "min": [
                -37.66503143310547,
                15.51567840576172,
                14.978270530700684
            ],
            "type": "VEC3"
        },
        {
            "bufferView": 2,
            "byteOffset": 330240,
            "componentType": 5126,
            "count": 4,
            "max": [
                1.0,
                0.0,
                0.0,
                1.0
            ],
            "min": [
                1.0,
                0.0,
                -0.000002617998006826383,
                1.0
            ],
            "type": "VEC4"
        },
        {
            "bufferView": 3,
            "byteOffset": 165120,
            "componentType": 5126,
            "count": 4,
            "max": [
                0.5352392196655273,
                1.0000004768371585
            ],
            "min": [
                0.4647636413574219,
                4.76837158203125e-7
            ],
            "type": "VEC2"
        }
    ],
    "materials": [
        {
            "pbrMetallicRoughness": {
                "baseColorFactor": [
                    0.0,
                    0.0,
                    0.0,
                    1.0
                ],
                "metallicFactor": 0.0,
                "roughnessFactor": 1.0
            },
            "name": "windows_frame_paint"
        },
        {
            "pbrMetallicRoughness": {}
        },
        {
            "pbrMetallicRoughness": {}
        },
        {
            "pbrMetallicRoughness": {}
        },
        {
            "pbrMetallicRoughness": {
                "baseColorFactor": [
                    0.800000011920929,
                    0.800000011920929,
                    0.800000011920929,
                    1.0
                ],
                "baseColorTexture": {
                    "index": 0
                },
                "metallicFactor": 0.0,
                "roughnessFactor": 1.0
            },
            "normalTexture": {
                "index": 1
            },
            "name": "glassframetexture"
        },
        {
            "pbrMetallicRoughness": {
                "baseColorFactor": [
                    1.0,
                    1.0,
                    1.0,
                    1.0
                ],
                "baseColorTexture": {
                    "index": 2
                },
                "metallicFactor": 0.0,
                "roughnessFactor": 1.0
            },
            "normalTexture": {
                "scale": 1.0645161867141724,
                "index": 3
            },
            "name": "roof_greening"
        },
        {
            "pbrMetallicRoughness": {
                "baseColorFactor": [
                    1.0,
                    1.0,
                    1.0,
                    1.0
                ],
                "baseColorTexture": {
                    "index": 4
                },
                "metallicFactor": 0.0,
                "roughnessFactor": 1.0
            },
            "normalTexture": {
                "scale": 1.7039105892181397,
                "index": 5
            },
            "name": "doorways"
        },
        {
            "pbrMetallicRoughness": {}
        }
    ],
    "textures": [
        {
            "sampler": 0,
            "source": 0
        },
        {
            "sampler": 0,
            "source": 1
        },
        {
            "sampler": 0,
            "source": 2
        },
        {
            "sampler": 0,
            "source": 3
        },
        {
            "sampler": 0,
            "source": 4
        },
        {
            "sampler": 0,
            "source": 5
        }
    ],
    "images": [
        {
            "uri": "glassframetexture.jpg"
        },
        {
            "uri": "glassframetexture_bump.jpg"
        },
        {
            "uri": "roof_greening_2k_color.jpg"
        },
        {
            "uri": "roof_greening_2k_normal.jpg"
        },
        {
            "uri": "doorways.jpg"
        },
        {
            "uri": "doorways_normal.jpg"
        }
    ],
    "samplers": [
        {
            "magFilter": 9729,
            "minFilter": 9987,
            "wrapS": 10497,
            "wrapT": 10497
        }
    ],
    "bufferViews": [
        {
            "buffer": 0,
            "byteOffset": 990912,
            "byteLength": 105408,
            "target": 34963
        },
        {
            "buffer": 0,
            "byteOffset": 330304,
            "byteLength": 495456,
            "byteStride": 12,
            "target": 34962
        },
        {
            "buffer": 0,
            "byteOffset": 0,
            "byteLength": 330304,
            "byteStride": 16,
            "target": 34962
        },
        {
            "buffer": 0,
            "byteOffset": 825760,
            "byteLength": 165152,
            "byteStride": 8,
            "target": 34962
        }
    ],
    "buffers": [
        {
            "byteLength": 1096320,
            "uri": "CSL-Lengnau_simplified-Extension_2_0250.bin"
        }
    ]
}
