<?xml version="1.0" encoding="UTF-8"?>
<svg width="100px" height="34px" viewBox="0 0 100 34" version="1.1" xmlns="http://www.w3.org/2000/svg" xmlns:xlink="http://www.w3.org/1999/xlink">
    <!-- Generator: Sketch 51.2 (57519) - http://www.bohemiancoding.com/sketch -->
    <title>csl-behring-seeklogo.com</title>
    <desc>Created with Sketch.</desc>
    <defs>
        <polygon id="path-1" points="0.06 0.395825495 20.5608883 0.395825495 20.5608883 16.5139154 0.06 16.5139154"></polygon>
    </defs>
    <g id="csl-behring-seeklogo.com" stroke="none" stroke-width="1" fill="none" fill-rule="evenodd">
        <g id="Group-4">
            <mask id="mask-2" fill="white">
                <use xlink:href="#path-1"></use>
            </mask>
            <g id="Clip-2"></g>
            <path d="M4.959,0.67 C6.833,0.178 8.844,0.387 10.642,1.067 C10.57,1.966 10.517,2.867 10.453,3.766 C9.378,3.243 8.211,2.769 6.991,2.931 C5.415,3.044 4.053,4.225 3.583,5.712 C2.938,7.697 2.965,9.961 3.87,11.861 C4.51,13.254 6.061,14.081 7.571,13.991 C8.59,14.056 9.544,13.68 10.447,13.258 C10.511,14.189 10.619,15.121 10.59,16.057 C8.248,16.644 5.583,16.834 3.415,15.588 C1.443,14.467 0.355,12.255 0.084,10.065 C-0.13,7.845 0.006,5.465 1.208,3.519 C2.012,2.113 3.401,1.085 4.959,0.67" id="Fill-1" fill="#D92A30" mask="url(#mask-2)"></path>
            <path d="M13.236,1.29 C15.18,0.017 17.682,0.29 19.792,0.957 C19.73,1.812 19.702,2.668 19.624,3.523 C18.32,3.021 16.807,2.472 15.448,3.087 C14.374,3.594 14.287,5.234 15.204,5.94 C16.643,7.032 18.494,7.556 19.717,8.931 C20.633,9.982 20.631,11.468 20.496,12.775 C20.311,14.324 19.138,15.651 17.674,16.138 C16.484,16.579 15.19,16.525 13.944,16.448 C13.153,16.402 12.393,16.163 11.68,15.83 C11.741,14.928 11.807,14.025 11.855,13.122 C13.14,13.786 14.652,14.38 16.101,13.948 C17.493,13.591 17.987,11.539 16.913,10.594 C15.618,9.446 13.815,9.03 12.619,7.755 C10.908,5.986 11.11,2.649 13.236,1.29" id="Fill-3" fill="#D92A30" mask="url(#mask-2)"></path>
        </g>
        <path d="M57.161,0.398 C58.137,0.4 59.115,0.404 60.093,0.393 C60.062,2.292 60.112,4.194 60.063,6.096 C61.068,4.081 64.267,3.926 65.592,5.668 C66.185,6.488 66.359,7.529 66.373,8.522 C66.367,11.115 66.369,13.707 66.371,16.299 C65.403,16.292 64.437,16.29 63.469,16.301 C63.483,13.898 63.479,11.495 63.475,9.091 C63.428,8.364 63.368,7.469 62.664,7.062 C61.94,6.725 60.986,6.962 60.54,7.637 C60.154,8.243 60.067,8.987 60.079,9.693 C60.093,11.896 60.071,14.099 60.093,16.301 C59.115,16.29 58.137,16.294 57.161,16.295 C57.161,10.997 57.161,5.697 57.161,0.398" id="Fill-5" fill="#D92A30"></path>
        <path d="M74.983,3.245 C74.981,2.294 74.983,1.341 74.981,0.391 C75.996,0.404 77.013,0.404 78.029,0.393 C78.018,1.343 78.018,2.294 78.029,3.247 C77.015,3.245 75.998,3.245 74.983,3.245" id="Fill-6" fill="#D92A30"></path>
        <path d="M22.089,0.647 C23.088,0.638 24.089,0.638 25.089,0.645 C25.096,5.064 25.094,9.483 25.089,13.902 C26.79,13.896 28.493,13.912 30.194,13.894 C30.183,14.697 30.183,15.499 30.194,16.301 C27.492,16.288 24.788,16.292 22.085,16.299 C22.089,11.082 22.081,5.865 22.089,0.647" id="Fill-7" fill="#D92A30"></path>
        <path d="M41.208,13.802 C40.415,14.07 39.562,13.96 38.741,13.983 C38.737,12.435 38.75,10.891 38.733,9.346 C39.584,9.387 40.482,9.221 41.295,9.553 C43.021,10.223 42.965,13.204 41.208,13.802 Z M41.553,3.29 C42.774,4.229 42.373,6.455 40.928,6.954 C40.222,7.178 39.466,7.057 38.739,7.086 C38.741,5.676 38.743,4.268 38.737,2.857 C39.676,2.895 40.747,2.677 41.553,3.29 Z M45.392,10.55 C45.075,9.292 43.962,8.351 42.707,8.106 C43.806,7.748 44.786,6.893 45.046,5.731 C45.326,4.424 45.272,2.89 44.366,1.826 C43.503,0.894 42.178,0.638 40.963,0.603 C39.25,0.572 37.537,0.611 35.826,0.583 C35.831,5.824 35.831,11.062 35.825,16.303 C37.471,16.284 39.119,16.299 40.767,16.296 C42.131,16.293 43.584,15.871 44.508,14.814 C45.557,13.687 45.748,11.994 45.392,10.55 Z" id="Fill-8" fill="#D92A30"></path>
        <path d="M49.39,9.396 C49.498,8.527 49.627,7.542 50.327,6.929 C50.973,6.289 52.21,6.405 52.704,7.174 C53.151,7.828 53.168,8.646 53.29,9.4 C51.989,9.394 50.689,9.402 49.39,9.396 Z M56.041,11.288 C56.083,9.481 55.99,7.518 54.856,6.017 C53.791,4.57 51.761,4.225 50.107,4.661 C48.667,5.072 47.617,6.317 47.101,7.68 C46.546,9.209 46.44,10.899 46.794,12.486 C47.116,13.919 47.993,15.294 49.357,15.928 C51.279,16.851 53.552,16.527 55.473,15.765 C55.454,14.992 55.404,14.22 55.354,13.449 C53.973,14.208 52.251,14.643 50.742,13.993 C49.718,13.52 49.456,12.299 49.394,11.281 C51.608,11.282 53.824,11.269 56.041,11.288 Z" id="Fill-9" fill="#D92A30"></path>
        <path d="M70.533,6.698 C70.972,5.259 72.466,4.246 73.977,4.513 C73.971,5.436 73.965,6.36 73.98,7.282 C73.296,7.172 72.537,7.095 71.934,7.512 C71.057,8.035 70.814,9.138 70.835,10.087 C70.832,12.156 70.838,14.226 70.835,16.295 C69.856,16.294 68.881,16.286 67.904,16.303 C67.928,13.011 67.902,9.718 67.916,6.426 C67.924,5.849 67.896,5.274 67.841,4.702 C68.715,4.688 69.589,4.686 70.464,4.703 C70.505,5.367 70.576,6.032 70.533,6.698" id="Fill-10" fill="#D92A30"></path>
        <path d="M82.479,6.294 C83.214,4.495 85.621,4.04 87.226,4.881 C88.404,5.508 88.82,6.929 88.884,8.173 C88.901,10.883 88.883,13.593 88.892,16.303 C87.92,16.29 86.948,16.29 85.976,16.303 C85.978,13.908 85.976,11.512 85.979,9.117 C85.95,8.445 85.922,7.645 85.37,7.174 C84.678,6.719 83.64,6.877 83.143,7.55 C82.662,8.15 82.597,8.958 82.597,9.697 C82.604,11.896 82.601,14.097 82.603,16.295 C81.624,16.294 80.648,16.29 79.672,16.301 C79.69,13.522 79.674,10.743 79.68,7.963 C79.672,6.874 79.715,5.782 79.608,4.696 C80.512,4.69 81.412,4.692 82.314,4.694 C82.367,5.228 82.429,5.76 82.479,6.294" id="Fill-11" fill="#D92A30"></path>
        <path d="M96.403,13.476 C95.927,14.006 95.144,14.245 94.452,14.079 C93.798,13.821 93.482,13.125 93.292,12.494 C92.94,11.153 92.929,9.723 93.246,8.376 C93.392,7.784 93.695,7.17 94.26,6.879 C94.96,6.593 95.849,6.75 96.332,7.359 C96.96,8.183 97.142,9.257 97.128,10.271 C97.142,11.368 97.084,12.563 96.403,13.476 Z M100,4.694 L97.442,4.694 C97.371,5.257 97.326,5.826 97.317,6.395 C97.011,5.937 96.706,5.459 96.266,5.12 C94.779,4.024 92.438,4.383 91.32,5.851 C90.304,7.153 90.094,8.866 90.043,10.465 C90.07,11.972 90.256,13.581 91.184,14.828 C92.189,16.236 94.257,16.697 95.79,15.923 C96.388,15.628 96.791,15.078 97.14,14.532 C97.105,15.615 97.229,16.782 96.646,17.753 C96.258,18.492 95.407,18.827 94.621,18.918 C93.255,19.046 91.949,18.518 90.744,17.94 C90.694,18.798 90.62,19.651 90.545,20.506 C92.227,21.122 94.053,21.393 95.836,21.156 C97.112,20.992 98.401,20.36 99.062,19.21 C99.99,17.621 99.974,15.711 99.96,13.929 C99.975,10.851 99.921,7.77 100,4.694 Z" id="Fill-12" fill="#D92A30"></path>
        <path d="M75.053,4.694 C76.023,4.694 76.995,4.69 77.967,4.698 C77.977,8.563 77.971,12.428 77.971,16.295 C76.995,16.292 76.021,16.288 75.047,16.297 C75.059,12.43 75.049,8.561 75.053,4.694" id="Fill-13" fill="#D92A30"></path>
        <path d="M78.455,22.477 C79.167,22.474 79.881,22.474 80.593,22.477 C80.589,22.572 80.583,22.763 80.581,22.857 C80.307,22.859 80.037,22.861 79.767,22.863 C79.767,23.65 79.765,24.435 79.767,25.223 C79.604,25.223 79.442,25.223 79.284,25.224 C79.284,24.435 79.284,23.648 79.284,22.861 C79.013,22.859 78.74,22.859 78.471,22.859 C78.467,22.765 78.459,22.574 78.455,22.477" id="Fill-14" fill="#6A6A68"></path>
        <path d="M81.072,22.472 C81.3,22.474 81.527,22.477 81.759,22.481 C82.016,23.15 82.271,23.82 82.523,24.491 C82.783,23.822 83.04,23.148 83.295,22.476 C83.474,22.476 83.833,22.476 84.012,22.476 C84.01,23.392 84.008,24.308 84.008,25.224 C83.889,25.224 83.647,25.224 83.528,25.224 C83.526,24.487 83.528,23.748 83.53,23.01 C83.222,23.783 82.943,24.568 82.627,25.338 C81.946,24.736 81.896,23.735 81.503,22.954 C81.501,23.71 81.503,24.466 81.503,25.224 C81.395,25.226 81.181,25.229 81.072,25.231 C81.066,24.309 81.066,23.39 81.072,22.472" id="Fill-15" fill="#6A6A68"></path>
        <path d="M16.212,23.971 C16.517,23.971 16.822,23.971 17.128,23.971 C17.125,25 17.142,26.032 17.115,27.062 C17.512,26.686 17.993,26.297 18.583,26.393 C19.264,26.41 19.893,26.931 19.937,27.629 C20.029,29.011 19.944,30.397 19.974,31.782 C19.667,31.782 19.362,31.782 19.057,31.784 C19.036,30.54 19.096,29.296 19.038,28.054 C19.032,27.612 18.679,27.142 18.201,27.193 C17.549,27.162 17.126,27.816 17.138,28.41 C17.102,29.535 17.144,30.657 17.128,31.782 C16.822,31.78 16.519,31.78 16.214,31.782 C16.21,29.178 16.212,26.574 16.212,23.971" id="Fill-16" fill="#6A6A68"></path>
        <path d="M52.438,24.273 C52.865,23.745 53.605,23.884 54.198,23.903 C54.208,24.159 54.22,24.418 54.233,24.677 C53.857,24.684 53.29,24.47 53.12,24.948 C53.016,25.45 53.055,25.967 53.047,26.476 C53.369,26.476 53.695,26.477 54.019,26.479 C54.017,26.719 54.017,26.96 54.017,27.199 C53.695,27.199 53.373,27.201 53.055,27.201 C53.053,28.728 53.053,30.255 53.053,31.782 C52.746,31.782 52.441,31.782 52.137,31.782 C52.137,30.256 52.137,28.728 52.137,27.203 C51.862,27.201 51.589,27.199 51.315,27.197 C51.316,27.018 51.316,26.659 51.318,26.479 C51.589,26.477 51.86,26.477 52.135,26.477 C52.171,25.745 51.99,24.913 52.438,24.273" id="Fill-17" fill="#6A6A68"></path>
        <path d="M72.321,24.298 C72.723,23.739 73.473,23.886 74.065,23.899 C74.075,24.157 74.086,24.416 74.1,24.675 C73.735,24.68 73.157,24.476 73.012,24.96 C72.931,25.462 72.968,25.971 72.964,26.476 C73.271,26.476 73.577,26.477 73.886,26.481 C73.884,26.721 73.882,26.96 73.882,27.199 C73.577,27.199 73.272,27.199 72.968,27.201 C72.966,28.728 72.97,30.256 72.968,31.784 C72.661,31.782 72.356,31.78 72.052,31.78 C72.052,30.255 72.054,28.728 72.052,27.203 C71.761,27.201 71.471,27.199 71.184,27.197 C71.184,27.018 71.184,26.659 71.184,26.479 C71.471,26.477 71.761,26.476 72.052,26.474 C72.098,25.757 71.882,24.929 72.321,24.298" id="Fill-18" fill="#6A6A68"></path>
        <path d="M5.939,24.308 C6.262,24.308 6.583,24.308 6.908,24.308 C6.906,24.661 6.906,25.014 6.906,25.369 C6.583,25.369 6.264,25.369 5.941,25.369 C5.941,25.016 5.941,24.661 5.939,24.308" id="Fill-19" fill="#6A6A68"></path>
        <path d="M38.635,24.308 C38.972,24.308 39.31,24.308 39.649,24.308 C39.647,24.661 39.646,25.014 39.647,25.369 C39.31,25.367 38.972,25.369 38.635,25.371 C38.635,25.016 38.635,24.661 38.635,24.308" id="Fill-20" fill="#6A6A68"></path>
        <path d="M69.399,24.308 C69.735,24.308 70.072,24.308 70.41,24.306 C70.408,24.661 70.41,25.014 70.412,25.369 C70.072,25.369 69.737,25.369 69.399,25.369 C69.399,25.016 69.398,24.661 69.399,24.308" id="Fill-21" fill="#6A6A68"></path>
        <path d="M3.21,30.791 C2.738,31.062 2.172,30.995 1.649,31.025 C1.648,30.166 1.649,29.308 1.649,28.447 C2.103,28.463 2.574,28.405 3.016,28.532 C3.931,28.855 4.022,30.299 3.21,30.791 Z M1.649,25.304 C2.192,25.34 2.809,25.247 3.262,25.613 C3.709,26.017 3.708,26.808 3.324,27.249 C2.894,27.705 2.214,27.616 1.649,27.654 L1.649,25.304 Z M3.55,27.978 C4.873,27.427 4.921,25.239 3.573,24.707 C2.646,24.402 1.644,24.601 0.686,24.551 C0.686,26.96 0.687,29.371 0.686,31.78 C1.739,31.72 2.899,32.002 3.856,31.438 C5.115,30.679 4.995,28.461 3.55,27.978 Z" id="Fill-22" fill="#6A6A68"></path>
        <path d="M65.349,24.549 C65.669,24.549 65.991,24.551 66.315,24.551 C66.314,26.688 66.312,28.825 66.315,30.962 C67.101,30.962 67.888,30.962 68.674,30.962 C68.674,31.234 68.676,31.508 68.678,31.78 C67.567,31.784 66.458,31.782 65.349,31.782 C65.349,29.371 65.349,26.96 65.349,24.549" id="Fill-23" fill="#6A6A68"></path>
        <path d="M13.506,25.401 C13.815,25.309 14.124,25.217 14.434,25.126 C14.43,25.575 14.428,26.026 14.426,26.477 C14.796,26.477 15.167,26.477 15.537,26.477 C15.537,26.717 15.537,26.958 15.539,27.199 C15.169,27.199 14.798,27.201 14.428,27.203 C14.438,28.183 14.415,29.163 14.428,30.143 C14.455,30.473 14.424,30.887 14.737,31.098 C15.007,31.084 15.277,31.06 15.547,31.026 C15.543,31.211 15.537,31.579 15.533,31.765 C15.009,31.836 14.424,31.976 13.942,31.68 C13.57,31.433 13.527,30.947 13.516,30.542 C13.499,29.427 13.522,28.314 13.51,27.201 C13.236,27.199 12.964,27.199 12.69,27.199 C12.69,27.018 12.692,26.659 12.692,26.477 C12.966,26.477 13.24,26.476 13.516,26.476 C13.512,26.117 13.51,25.758 13.506,25.401" id="Fill-24" fill="#6A6A68"></path>
        <path d="M5.939,26.476 C6.246,26.476 6.551,26.477 6.857,26.477 C6.859,28.246 6.857,30.014 6.859,31.782 C6.553,31.782 6.246,31.782 5.941,31.784 C5.939,30.014 5.941,28.245 5.939,26.476" id="Fill-25" fill="#6A6A68"></path>
        <path d="M11.008,30.486 C10.78,31.13 9.875,31.323 9.382,30.867 C8.873,30.393 8.88,29.629 8.873,28.987 C8.895,28.374 8.964,27.604 9.56,27.267 C10.092,26.96 10.851,27.246 11.036,27.836 C11.329,28.679 11.336,29.649 11.008,30.486 Z M11.845,27.427 C11.425,26.525 10.275,26.192 9.371,26.489 C8.538,26.723 8.059,27.579 7.961,28.394 C7.853,29.328 7.876,30.388 8.479,31.161 C9.312,32.257 11.315,32.067 11.869,30.783 C12.341,29.737 12.328,28.467 11.845,27.427 Z" id="Fill-26" fill="#6A6A68"></path>
        <path d="M21.854,28.686 C21.955,28.227 21.968,27.69 22.336,27.348 C22.669,26.998 23.311,27.021 23.613,27.401 C23.906,27.765 23.896,28.254 23.968,28.692 C23.262,28.697 22.558,28.696 21.854,28.686 Z M24.852,29.418 C24.856,28.615 24.888,27.725 24.373,27.054 C23.685,26.082 22.034,26.207 21.415,27.19 C20.897,27.991 20.866,29.001 20.988,29.921 C21.092,30.654 21.493,31.4 22.197,31.707 C22.956,32.025 23.787,31.81 24.546,31.612 C24.55,31.317 24.556,31.019 24.562,30.724 C23.953,31.033 23.202,31.377 22.549,30.97 C21.995,30.665 21.946,29.984 21.856,29.429 C22.853,29.412 23.852,29.421 24.852,29.418 Z" id="Fill-27" fill="#6A6A68"></path>
        <path d="M25.76,26.477 C26.053,26.477 26.348,26.479 26.642,26.479 C26.63,26.663 26.605,27.027 26.591,27.211 C26.948,26.663 27.527,26.404 28.159,26.327 C28.165,26.636 28.169,26.942 28.175,27.251 C27.613,27.24 26.998,27.44 26.838,28.044 C26.526,29.261 26.736,30.54 26.676,31.784 C26.372,31.782 26.066,31.782 25.762,31.782 C25.758,30.014 25.762,28.245 25.76,26.477" id="Fill-28" fill="#6A6A68"></path>
        <path d="M30.861,31.043 C30.233,31.422 29.359,30.916 29.496,30.158 C29.635,29.184 30.802,29.155 31.564,29.155 C31.565,29.828 31.604,30.729 30.861,31.043 Z M32.436,28.005 C32.431,27.372 32.048,26.746 31.435,26.549 C30.638,26.219 29.764,26.449 29.022,26.806 C29.06,27.091 29.096,27.377 29.134,27.662 C29.701,27.296 30.414,26.958 31.087,27.255 C31.567,27.462 31.52,28.05 31.59,28.478 C30.819,28.532 29.977,28.484 29.294,28.908 C28.241,29.519 28.323,31.497 29.59,31.798 C30.327,32.038 31.091,31.725 31.624,31.207 C31.631,31.351 31.643,31.638 31.65,31.781 C31.92,31.781 32.19,31.781 32.46,31.784 C32.443,30.524 32.503,29.264 32.436,28.005 Z" id="Fill-29" fill="#6A6A68"></path>
        <path d="M36.486,30.518 C36.264,31.162 35.323,31.315 34.886,30.811 C34.471,30.299 34.451,29.597 34.449,28.969 C34.484,28.385 34.542,27.687 35.047,27.308 C35.566,26.938 36.346,27.225 36.526,27.828 C36.8,28.686 36.808,29.672 36.486,30.518 Z M37.612,28.571 C37.566,27.668 37.134,26.582 36.131,26.422 C35.433,26.235 34.783,26.642 34.372,27.176 C34.378,27.003 34.392,26.651 34.399,26.477 C34.101,26.476 33.805,26.476 33.508,26.477 C33.543,28.983 33.514,31.492 33.523,34 C33.828,33.998 34.133,33.998 34.438,34 C34.436,33.043 34.457,32.087 34.417,31.13 C34.939,31.878 36.023,32.128 36.774,31.565 C37.653,30.862 37.67,29.601 37.612,28.571 Z" id="Fill-30" fill="#6A6A68"></path>
        <path d="M38.681,26.479 C38.988,26.477 39.292,26.477 39.599,26.477 C39.599,28.246 39.601,30.016 39.597,31.784 C39.292,31.782 38.988,31.782 38.683,31.782 C38.683,30.016 38.685,28.246 38.681,26.479" id="Fill-31" fill="#6A6A68"></path>
        <path d="M42.122,27.272 C42.552,26.931 43.255,27.134 43.455,27.635 C43.584,27.975 43.621,28.338 43.692,28.69 C42.973,28.697 42.253,28.697 41.534,28.69 C41.673,28.206 41.665,27.589 42.122,27.272 Z M42.36,31.036 C41.713,30.781 41.651,30.015 41.54,29.427 C42.552,29.413 43.569,29.421 44.583,29.419 C44.558,28.603 44.565,27.705 44.049,27.023 C43.374,26.119 41.825,26.2 41.181,27.102 C40.635,27.861 40.554,28.861 40.66,29.765 C40.756,30.497 41.063,31.304 41.772,31.643 C42.564,32.056 43.488,31.836 44.29,31.571 C44.265,31.293 44.242,31.013 44.221,30.732 C43.656,31.021 42.99,31.337 42.36,31.036 Z" id="Fill-32" fill="#6A6A68"></path>
        <path d="M46.04,26.582 C46.667,26.264 47.378,26.43 48.038,26.52 C48.04,26.804 48.042,27.087 48.047,27.373 C47.569,27.261 47.065,27.033 46.578,27.217 C46.155,27.348 45.943,27.947 46.283,28.271 C46.738,28.702 47.401,28.794 47.897,29.167 C48.717,29.85 48.443,31.412 47.417,31.745 C46.718,31.971 45.939,31.885 45.274,31.595 C45.147,31.327 45.243,31.011 45.222,30.725 C45.793,30.949 46.427,31.284 47.042,31.007 C47.479,30.856 47.629,30.275 47.326,29.931 C46.769,29.421 45.908,29.357 45.424,28.75 C44.931,28.038 45.254,26.936 46.04,26.582" id="Fill-33" fill="#6A6A68"></path>
        <path d="M57.493,30.469 C57.26,31.171 56.229,31.338 55.771,30.771 C55.32,30.22 55.35,29.456 55.364,28.785 C55.396,28.229 55.514,27.559 56.047,27.265 C56.58,26.962 57.333,27.243 57.514,27.838 C57.808,28.675 57.809,29.638 57.493,30.469 Z M58.002,26.968 C57.414,26.354 56.433,26.241 55.666,26.554 C54.851,26.875 54.479,27.786 54.416,28.603 C54.356,29.433 54.392,30.339 54.871,31.051 C55.504,32.014 56.991,32.128 57.861,31.434 C58.5,30.876 58.673,29.976 58.684,29.168 C58.679,28.396 58.552,27.553 58.002,26.968 Z" id="Fill-34" fill="#6A6A68"></path>
        <path d="M59.61,26.477 C59.903,26.477 60.199,26.477 60.496,26.477 C60.475,26.73 60.453,26.983 60.433,27.235 C60.785,26.677 61.37,26.396 62.016,26.331 C62.018,26.636 62.02,26.942 62.022,27.251 C61.454,27.245 60.822,27.458 60.68,28.075 C60.388,29.286 60.579,30.55 60.528,31.782 C60.222,31.78 59.915,31.78 59.61,31.782 C59.608,30.014 59.61,28.246 59.61,26.477" id="Fill-35" fill="#6A6A68"></path>
        <path d="M69.449,26.477 C69.752,26.477 70.058,26.477 70.364,26.479 C70.364,28.246 70.364,30.016 70.364,31.784 C70.058,31.78 69.752,31.78 69.447,31.78 C69.449,30.014 69.445,28.245 69.449,26.477" id="Fill-36" fill="#6A6A68"></path>
        <path d="M75.836,27.231 C76.246,26.958 76.848,27.138 77.072,27.569 C77.234,27.921 77.273,28.311 77.355,28.688 C76.631,28.697 75.907,28.697 75.186,28.686 C75.326,28.184 75.331,27.531 75.836,27.231 Z M75.971,31.017 C75.352,30.742 75.309,29.997 75.191,29.425 C76.208,29.413 77.227,29.421 78.243,29.418 C78.21,28.546 78.22,27.558 77.586,26.875 C76.825,26.115 75.408,26.268 74.798,27.144 C74.285,27.909 74.204,28.887 74.315,29.778 C74.414,30.532 74.754,31.351 75.495,31.674 C76.266,32.041 77.138,31.819 77.917,31.602 C77.907,31.313 77.899,31.024 77.896,30.735 C77.306,31.018 76.615,31.346 75.971,31.017 Z" id="Fill-37" fill="#6A6A68"></path>
    </g>
</svg>