<svg version="1" xmlns="http://www.w3.org/2000/svg" width="21.333" height="21.333" viewBox="0 0 16.000000 16.000000"><path d="M4.125 5.244c0 .012-.203.972-.453 2.131-.25 1.16-.453 2.119-.453 2.131 0 .013.203.025.45.025.403 0 .453-.006.469-.056.009-.028.084-.397.171-.819.085-.422.197-.95.25-1.172.082-.359.472-2.215.472-2.253 0-.006-.203-.012-.453-.012s-.453.012-.453.025zM5.688 7.319l-.463 2.16c-.013.05.019.052.447.046l.462-.01.179-.859c.1-.472.209-.987.243-1.14.075-.322.475-2.232.475-2.272 0-.013-.2-.025-.447-.025h-.443l-.454 2.1zM7.128 5.581c-.04.206-.081.39-.087.41-.013.03.062.04.318.04.394 0 .579.04.7.153.179.166.185.491.02.71-.145.19-.32.243-.826.262l-.453.016-.069.328c-.112.522-.156.469.41.469.806 0 1.206-.122 1.562-.482.216-.215.313-.4.381-.718.113-.532-.056-1.019-.44-1.285-.275-.187-.475-.24-.988-.256l-.453-.016-.075.37zM1.253 6.519c-.431.115-.819.45-1.028.887-.29.606-.29 1.222-.003 1.653.14.21.362.379.637.479.254.09.844.096 1.125.012.229-.069.444-.175.575-.284l.097-.085-.194-.247a3.315 3.315 0 0 0-.215-.265.666.666 0 0 0-.206.078c-.41.21-.854.212-1.05.012a.708.708 0 0 1-.179-.493v-.172H2.891l.059-.144c.047-.116.056-.19.04-.388-.034-.512-.306-.865-.796-1.028-.231-.078-.681-.087-.94-.015zm.666.712c.137.056.24.21.262.381l.016.138H.906l.06-.119a.915.915 0 0 1 .393-.384.84.84 0 0 1 .56-.016zM10.222 6.516c-.547.153-1.019.659-1.175 1.256-.069.26-.06.71.015.953.116.378.407.694.76.825.116.044.244.06.447.06.269 0 .3-.007.512-.116.225-.116.225-.116.206-.04l-.018.077h.403c.36 0 .406-.006.422-.056.018-.06.612-2.897.612-2.925 0-.01-.187-.019-.419-.019h-.421l-.022.144-.019.144-.1-.097c-.172-.166-.372-.235-.722-.244a1.701 1.701 0 0 0-.481.038zm.762.803c.491.26.416 1.1-.125 1.415-.465.275-1.012-.028-1.015-.565-.003-.66.619-1.122 1.14-.85zM12.594 6.55c0 .01.212.516.469 1.122.259.61.468 1.122.468 1.14 0 .02-.297.447-.656.954-.363.506-.666.943-.675.968-.019.044.04.047.46.041l.477-.01 1.429-2.093c.787-1.153 1.43-2.103 1.43-2.119.004-.012-.205-.022-.465-.022h-.469l-.471.71c-.26.393-.485.725-.497.737-.013.016-.156-.306-.316-.71l-.294-.737h-.443c-.247 0-.447.01-.447.019z"/></svg>